<svg width="24" height="24" viewBox="0 0 24 24" fill="none" xmlns="http://www.w3.org/2000/svg">
<path d="M2.51325 17.918C2.62541 18.0273 2.80632 18.0273 2.9221 17.918L7.92597 13.0622L12.5427 17.5933C12.6549 17.7027 12.8394 17.7027 12.9515 17.5933L22.9159 7.87822C23.028 7.76883 23.028 7.58885 22.9159 7.47946L21.4831 6.08201C21.4287 6.02947 21.3552 6 21.2787 6C21.2021 6 21.1286 6.02947 21.0742 6.08201L12.7526 14.195L8.14305 9.67091C8.08865 9.61837 8.01519 9.58889 7.93863 9.58889C7.86207 9.58889 7.78861 9.61837 7.73421 9.67091L1.08409 16.1182C1.03022 16.1713 1 16.2429 1 16.3176C1 16.3923 1.03022 16.4639 1.08409 16.517L2.51325 17.918Z" fill="#FF5B5A"/>
</svg>
