<svg width="32" height="32" viewBox="0 0 32 32" fill="none" xmlns="http://www.w3.org/2000/svg">
<path d="M28.649 23.8906C28.4995 24.0365 28.2583 24.0365 28.1039 23.8906L21.4321 17.4162L15.2764 23.4577C15.1269 23.6036 14.8808 23.6036 14.7313 23.4577L1.44552 10.5043C1.29597 10.3584 1.29597 10.1185 1.44552 9.97261L3.35589 8.10935C3.42843 8.0393 3.52638 8 3.62846 8C3.73053 8 3.82849 8.0393 3.90102 8.10935L14.9966 18.9266L21.1426 12.8945C21.2151 12.8245 21.3131 12.7852 21.4152 12.7852C21.5173 12.7852 21.6152 12.8245 21.6877 12.8945L30.5546 21.491C30.6264 21.5617 30.6667 21.6572 30.6667 21.7568C30.6667 21.8564 30.6264 21.9519 30.5546 22.0226L28.649 23.8906Z" fill="#FF5B5A"/>
</svg>
