<svg width="497" height="339" viewBox="0 0 497 339" fill="none" xmlns="http://www.w3.org/2000/svg">
<path d="M2.73488 18H1.39088L5.72688 8.64H0.238875V7.536H7.07088V8.64L2.73488 18ZM9.68163 18H8.43363V6.752H9.68163V18ZM11.3296 13.744L14.6256 18H13.1056L9.84163 13.744L13.0256 9.888H14.5296L11.3296 13.744Z" fill="#828282"/>
<path d="M8.28531 52.592C8.28531 53.6587 7.98131 54.5227 7.37331 55.184C6.77598 55.8453 5.98131 56.176 4.98931 56.176C3.79465 56.176 2.87731 55.7227 2.23731 54.816C1.59731 53.9093 1.27731 52.7253 1.27731 51.264C1.27731 49.5253 1.70398 48.0853 2.55731 46.944C3.41065 45.8027 4.58398 45.232 6.07731 45.232C6.55731 45.232 7.04798 45.312 7.54931 45.472V46.704C7.09065 46.5013 6.60531 46.4 6.09331 46.4C5.09065 46.4 4.29065 46.7787 3.69331 47.536C3.09598 48.2827 2.72798 49.2267 2.58931 50.368C3.29331 49.632 4.16265 49.264 5.19731 49.264C6.15731 49.264 6.90931 49.568 7.45331 50.176C8.00798 50.784 8.28531 51.5893 8.28531 52.592ZM4.98931 55.008C5.59731 55.008 6.07731 54.784 6.42931 54.336C6.79198 53.888 6.97331 53.3013 6.97331 52.576C6.97331 51.9147 6.79198 51.3867 6.42931 50.992C6.07731 50.5973 5.61331 50.4 5.03731 50.4C4.07731 50.4 3.24531 50.7893 2.54131 51.568C2.58398 52.6987 2.82931 53.5573 3.27731 54.144C3.72531 54.72 4.29598 55.008 4.98931 55.008ZM11.2832 56H10.0352V44.752H11.2832V56ZM12.9312 51.744L16.2272 56H14.7072L11.4432 51.744L14.6272 47.888H16.1312L12.9312 51.744Z" fill="#828282"/>
<path d="M7.50994 90.736C7.50994 91.7707 7.1686 92.5973 6.48594 93.216C5.81394 93.824 4.89127 94.128 3.71794 94.128C2.66194 94.128 1.76594 93.9467 1.02994 93.584V92.336C1.7126 92.7413 2.53927 92.944 3.50994 92.944C5.30194 92.944 6.19794 92.192 6.19794 90.688C6.19794 90.08 5.98994 89.6107 5.57394 89.28C5.15794 88.9387 4.61927 88.768 3.95794 88.768C3.17927 88.768 2.37394 88.9547 1.54194 89.328V83.536H6.78994V84.64H2.78994V87.776C3.26994 87.6693 3.68594 87.616 4.03794 87.616C5.1046 87.616 5.94727 87.8987 6.56594 88.464C7.19527 89.0293 7.50994 89.7867 7.50994 90.736ZM10.6426 94H9.39456V82.752H10.6426V94ZM12.2906 89.744L15.5866 94H14.0666L10.8026 89.744L13.9866 85.888H15.4906L12.2906 89.744Z" fill="#828282"/>
<path d="M2.28794 128.352H5.79194V122.288L2.28794 128.352ZM7.03994 132H5.79194V129.456H1.00794V128.352L4.99194 121.536H7.03994V128.352H8.59194V129.456H7.03994V132ZM11.3926 132H10.1446V120.752H11.3926V132ZM13.0406 127.744L16.3366 132H14.8166L11.5526 127.744L14.7366 123.888H16.2406L13.0406 127.744Z" fill="#828282"/>
<path d="M7.06969 167.12C7.06969 167.973 6.77102 168.683 6.17369 169.248C5.57635 169.813 4.73369 170.096 3.64569 170.096C2.64302 170.096 1.77369 169.92 1.03769 169.568V168.304C1.82702 168.72 2.68569 168.928 3.61369 168.928C4.29635 168.928 4.82435 168.752 5.19769 168.4C5.58169 168.048 5.77369 167.589 5.77369 167.024C5.77369 166.459 5.56035 166.027 5.13369 165.728C4.71769 165.419 4.11502 165.264 3.32569 165.264H2.65369V164.16H3.32569C3.92302 164.16 4.42435 163.995 4.82969 163.664C5.24569 163.323 5.45369 162.869 5.45369 162.304C5.45369 161.739 5.27769 161.312 4.92569 161.024C4.57369 160.736 4.08835 160.592 3.46969 160.592C2.73369 160.592 2.02969 160.811 1.35769 161.248V160.016C1.97635 159.621 2.69102 159.424 3.50169 159.424C4.53635 159.424 5.33635 159.691 5.90169 160.224C6.47769 160.747 6.76569 161.397 6.76569 162.176C6.76569 162.741 6.62169 163.248 6.33369 163.696C6.05635 164.144 5.64035 164.48 5.08569 164.704C5.69369 164.843 6.17369 165.125 6.52569 165.552C6.88835 165.968 7.06969 166.491 7.06969 167.12ZM10.2988 170H9.05081V158.752H10.2988V170ZM11.9468 165.744L15.2428 170H13.7228L10.4588 165.744L13.6428 161.888H15.1468L11.9468 165.744Z" fill="#828282"/>
<path d="M7.41913 208H0.811125V206.928C4.11779 204.432 5.77113 202.352 5.77113 200.688C5.77113 200.027 5.57913 199.52 5.19513 199.168C4.81113 198.805 4.29379 198.624 3.64313 198.624C2.80046 198.624 1.96846 198.939 1.14713 199.568V198.304C1.90446 197.717 2.77379 197.424 3.75513 197.424C4.69379 197.424 5.48313 197.696 6.12313 198.24C6.76313 198.784 7.08313 199.557 7.08313 200.56C7.08313 202.448 5.57379 204.56 2.55512 206.896H7.41913V208ZM10.5254 208H9.27738V196.752H10.5254V208ZM12.1734 203.744L15.4694 208H13.9494L10.6854 203.744L13.8694 199.888H15.3734L12.1734 203.744Z" fill="#828282"/>
<path d="M4.02231 246H2.77431V236.912L0.358313 238.4V237.04L2.83831 235.536H4.02231V246ZM7.65819 246H6.41019V234.752H7.65819V246ZM9.30619 241.744L12.6022 246H11.0822L7.81819 241.744L11.0022 237.888H12.5062L9.30619 241.744Z" fill="#828282"/>
<path d="M8.16444 278.736C8.16444 280.368 7.84444 281.675 7.20444 282.656C6.56444 283.637 5.65244 284.128 4.46844 284.128C3.36977 284.128 2.48977 283.637 1.82844 282.656C1.1671 281.675 0.836438 280.368 0.836438 278.736C0.836438 277.093 1.1671 275.797 1.82844 274.848C2.50044 273.888 3.38044 273.408 4.46844 273.408C5.5991 273.408 6.4951 273.888 7.15644 274.848C7.82844 275.797 8.16444 277.093 8.16444 278.736ZM2.82044 275.696C2.36177 276.411 2.13244 277.424 2.13244 278.736C2.13244 280.048 2.35644 281.077 2.80444 281.824C3.25244 282.56 3.8071 282.928 4.46844 282.928C5.20444 282.928 5.78577 282.565 6.21244 281.84C6.64977 281.115 6.86844 280.08 6.86844 278.736C6.86844 277.403 6.6391 276.384 6.18044 275.68C5.73244 274.965 5.16177 274.608 4.46844 274.608C3.82844 274.608 3.2791 274.971 2.82044 275.696Z" fill="#828282"/>
<path d="M64.327 331H63.079V321.912L60.663 323.4V322.04L63.143 320.536H64.327V331ZM72.7629 331H66.1549V329.928C69.4615 327.432 71.1149 325.352 71.1149 323.688C71.1149 323.027 70.9229 322.52 70.5389 322.168C70.1549 321.805 69.6375 321.624 68.9869 321.624C68.1442 321.624 67.3122 321.939 66.4909 322.568V321.304C67.2482 320.717 68.1175 320.424 69.0989 320.424C70.0375 320.424 70.8269 320.696 71.4669 321.24C72.1069 321.784 72.4269 322.557 72.4269 323.56C72.4269 325.448 70.9175 327.56 67.8989 329.896H72.7629V331ZM76.2691 324.92C76.2691 325.187 76.1785 325.411 75.9971 325.592C75.8158 325.763 75.5918 325.848 75.3251 325.848C75.0585 325.848 74.8345 325.763 74.6531 325.592C74.4825 325.411 74.3971 325.187 74.3971 324.92C74.3971 324.664 74.4825 324.445 74.6531 324.264C74.8345 324.083 75.0585 323.992 75.3251 323.992C75.5918 323.992 75.8158 324.083 75.9971 324.264C76.1785 324.445 76.2691 324.664 76.2691 324.92ZM75.9971 329.416C76.1785 329.597 76.2691 329.821 76.2691 330.088C76.2691 330.355 76.1785 330.579 75.9971 330.76C75.8158 330.931 75.5918 331.016 75.3251 331.016C75.0585 331.016 74.8345 330.931 74.6531 330.76C74.4825 330.579 74.3971 330.355 74.3971 330.088C74.3971 329.821 74.4825 329.597 74.6531 329.416C74.8345 329.235 75.0585 329.144 75.3251 329.144C75.5918 329.144 75.8158 329.235 75.9971 329.416ZM85.2348 325.736C85.2348 327.368 84.9148 328.675 84.2748 329.656C83.6348 330.637 82.7228 331.128 81.5388 331.128C80.4401 331.128 79.5601 330.637 78.8988 329.656C78.2374 328.675 77.9068 327.368 77.9068 325.736C77.9068 324.093 78.2374 322.797 78.8988 321.848C79.5708 320.888 80.4508 320.408 81.5388 320.408C82.6694 320.408 83.5654 320.888 84.2268 321.848C84.8988 322.797 85.2348 324.093 85.2348 325.736ZM79.8908 322.696C79.4321 323.411 79.2028 324.424 79.2028 325.736C79.2028 327.048 79.4268 328.077 79.8748 328.824C80.3228 329.56 80.8774 329.928 81.5388 329.928C82.2748 329.928 82.8561 329.565 83.2828 328.84C83.7201 328.115 83.9388 327.08 83.9388 325.736C83.9388 324.403 83.7094 323.384 83.2508 322.68C82.8028 321.965 82.2321 321.608 81.5388 321.608C80.8988 321.608 80.3494 321.971 79.8908 322.696ZM93.9379 325.736C93.9379 327.368 93.6179 328.675 92.9779 329.656C92.3379 330.637 91.4259 331.128 90.2419 331.128C89.1432 331.128 88.2632 330.637 87.6019 329.656C86.9405 328.675 86.6099 327.368 86.6099 325.736C86.6099 324.093 86.9405 322.797 87.6019 321.848C88.2739 320.888 89.1539 320.408 90.2419 320.408C91.3725 320.408 92.2685 320.888 92.9299 321.848C93.6019 322.797 93.9379 324.093 93.9379 325.736ZM88.5939 322.696C88.1352 323.411 87.9059 324.424 87.9059 325.736C87.9059 327.048 88.1299 328.077 88.5779 328.824C89.0259 329.56 89.5805 329.928 90.2419 329.928C90.9779 329.928 91.5592 329.565 91.9859 328.84C92.4232 328.115 92.6419 327.08 92.6419 325.736C92.6419 324.403 92.4125 323.384 91.9539 322.68C91.5059 321.965 90.9352 321.608 90.2419 321.608C89.6019 321.608 89.0525 321.971 88.5939 322.696Z" fill="#828282"/>
<path d="M115.493 325.736C115.493 327.368 115.173 328.675 114.533 329.656C113.893 330.637 112.981 331.128 111.797 331.128C110.698 331.128 109.818 330.637 109.157 329.656C108.495 328.675 108.165 327.368 108.165 325.736C108.165 324.093 108.495 322.797 109.157 321.848C109.829 320.888 110.709 320.408 111.797 320.408C112.927 320.408 113.823 320.888 114.485 321.848C115.157 322.797 115.493 324.093 115.493 325.736ZM110.149 322.696C109.69 323.411 109.461 324.424 109.461 325.736C109.461 327.048 109.685 328.077 110.133 328.824C110.581 329.56 111.135 329.928 111.797 329.928C112.533 329.928 113.114 329.565 113.541 328.84C113.978 328.115 114.197 327.08 114.197 325.736C114.197 324.403 113.967 323.384 113.509 322.68C113.061 321.965 112.49 321.608 111.797 321.608C111.157 321.608 110.607 321.971 110.149 322.696ZM120.132 331H118.884V321.912L116.468 323.4V322.04L118.948 320.536H120.132V331ZM124.168 324.92C124.168 325.187 124.077 325.411 123.896 325.592C123.714 325.763 123.49 325.848 123.224 325.848C122.957 325.848 122.733 325.763 122.552 325.592C122.381 325.411 122.296 325.187 122.296 324.92C122.296 324.664 122.381 324.445 122.552 324.264C122.733 324.083 122.957 323.992 123.224 323.992C123.49 323.992 123.714 324.083 123.896 324.264C124.077 324.445 124.168 324.664 124.168 324.92ZM123.896 329.416C124.077 329.597 124.168 329.821 124.168 330.088C124.168 330.355 124.077 330.579 123.896 330.76C123.714 330.931 123.49 331.016 123.224 331.016C122.957 331.016 122.733 330.931 122.552 330.76C122.381 330.579 122.296 330.355 122.296 330.088C122.296 329.821 122.381 329.597 122.552 329.416C122.733 329.235 122.957 329.144 123.224 329.144C123.49 329.144 123.714 329.235 123.896 329.416ZM133.133 325.736C133.133 327.368 132.813 328.675 132.173 329.656C131.533 330.637 130.621 331.128 129.437 331.128C128.339 331.128 127.459 330.637 126.797 329.656C126.136 328.675 125.805 327.368 125.805 325.736C125.805 324.093 126.136 322.797 126.797 321.848C127.469 320.888 128.349 320.408 129.437 320.408C130.568 320.408 131.464 320.888 132.125 321.848C132.797 322.797 133.133 324.093 133.133 325.736ZM127.789 322.696C127.331 323.411 127.101 324.424 127.101 325.736C127.101 327.048 127.325 328.077 127.773 328.824C128.221 329.56 128.776 329.928 129.437 329.928C130.173 329.928 130.755 329.565 131.181 328.84C131.619 328.115 131.837 327.08 131.837 325.736C131.837 324.403 131.608 323.384 131.149 322.68C130.701 321.965 130.131 321.608 129.437 321.608C128.797 321.608 128.248 321.971 127.789 322.696ZM141.836 325.736C141.836 327.368 141.516 328.675 140.876 329.656C140.236 330.637 139.324 331.128 138.14 331.128C137.042 331.128 136.162 330.637 135.5 329.656C134.839 328.675 134.508 327.368 134.508 325.736C134.508 324.093 134.839 322.797 135.5 321.848C136.172 320.888 137.052 320.408 138.14 320.408C139.271 320.408 140.167 320.888 140.828 321.848C141.5 322.797 141.836 324.093 141.836 325.736ZM136.492 322.696C136.034 323.411 135.804 324.424 135.804 325.736C135.804 327.048 136.028 328.077 136.476 328.824C136.924 329.56 137.479 329.928 138.14 329.928C138.876 329.928 139.458 329.565 139.884 328.84C140.322 328.115 140.54 327.08 140.54 325.736C140.54 324.403 140.311 323.384 139.852 322.68C139.404 321.965 138.834 321.608 138.14 321.608C137.5 321.608 136.951 321.971 136.492 322.696Z" fill="#828282"/>
<path d="M163.125 325.736C163.125 327.368 162.805 328.675 162.165 329.656C161.525 330.637 160.613 331.128 159.429 331.128C158.331 331.128 157.451 330.637 156.789 329.656C156.128 328.675 155.797 327.368 155.797 325.736C155.797 324.093 156.128 322.797 156.789 321.848C157.461 320.888 158.341 320.408 159.429 320.408C160.56 320.408 161.456 320.888 162.117 321.848C162.789 322.797 163.125 324.093 163.125 325.736ZM157.781 322.696C157.323 323.411 157.093 324.424 157.093 325.736C157.093 327.048 157.317 328.077 157.765 328.824C158.213 329.56 158.768 329.928 159.429 329.928C160.165 329.928 160.747 329.565 161.173 328.84C161.611 328.115 161.829 327.08 161.829 325.736C161.829 324.403 161.6 323.384 161.141 322.68C160.693 321.965 160.123 321.608 159.429 321.608C158.789 321.608 158.24 321.971 157.781 322.696ZM171.029 331H164.421V329.928C167.727 327.432 169.381 325.352 169.381 323.688C169.381 323.027 169.189 322.52 168.805 322.168C168.421 321.805 167.903 321.624 167.253 321.624C166.41 321.624 165.578 321.939 164.757 322.568V321.304C165.514 320.717 166.383 320.424 167.365 320.424C168.303 320.424 169.093 320.696 169.733 321.24C170.373 321.784 170.693 322.557 170.693 323.56C170.693 325.448 169.183 327.56 166.164 329.896H171.029V331ZM174.535 324.92C174.535 325.187 174.444 325.411 174.263 325.592C174.081 325.763 173.857 325.848 173.591 325.848C173.324 325.848 173.1 325.763 172.919 325.592C172.748 325.411 172.663 325.187 172.663 324.92C172.663 324.664 172.748 324.445 172.919 324.264C173.1 324.083 173.324 323.992 173.591 323.992C173.857 323.992 174.081 324.083 174.263 324.264C174.444 324.445 174.535 324.664 174.535 324.92ZM174.263 329.416C174.444 329.597 174.535 329.821 174.535 330.088C174.535 330.355 174.444 330.579 174.263 330.76C174.081 330.931 173.857 331.016 173.591 331.016C173.324 331.016 173.1 330.931 172.919 330.76C172.748 330.579 172.663 330.355 172.663 330.088C172.663 329.821 172.748 329.597 172.919 329.416C173.1 329.235 173.324 329.144 173.591 329.144C173.857 329.144 174.081 329.235 174.263 329.416ZM183.5 325.736C183.5 327.368 183.18 328.675 182.54 329.656C181.9 330.637 180.988 331.128 179.804 331.128C178.706 331.128 177.826 330.637 177.164 329.656C176.503 328.675 176.172 327.368 176.172 325.736C176.172 324.093 176.503 322.797 177.164 321.848C177.836 320.888 178.716 320.408 179.804 320.408C180.935 320.408 181.831 320.888 182.492 321.848C183.164 322.797 183.5 324.093 183.5 325.736ZM178.156 322.696C177.698 323.411 177.468 324.424 177.468 325.736C177.468 327.048 177.692 328.077 178.14 328.824C178.588 329.56 179.143 329.928 179.804 329.928C180.54 329.928 181.122 329.565 181.548 328.84C181.986 328.115 182.204 327.08 182.204 325.736C182.204 324.403 181.975 323.384 181.516 322.68C181.068 321.965 180.498 321.608 179.804 321.608C179.164 321.608 178.615 321.971 178.156 322.696ZM192.204 325.736C192.204 327.368 191.884 328.675 191.244 329.656C190.604 330.637 189.692 331.128 188.508 331.128C187.409 331.128 186.529 330.637 185.868 329.656C185.206 328.675 184.876 327.368 184.876 325.736C184.876 324.093 185.206 322.797 185.868 321.848C186.54 320.888 187.42 320.408 188.508 320.408C189.638 320.408 190.534 320.888 191.196 321.848C191.868 322.797 192.204 324.093 192.204 325.736ZM186.86 322.696C186.401 323.411 186.172 324.424 186.172 325.736C186.172 327.048 186.396 328.077 186.844 328.824C187.292 329.56 187.846 329.928 188.508 329.928C189.244 329.928 189.825 329.565 190.252 328.84C190.689 328.115 190.908 327.08 190.908 325.736C190.908 324.403 190.678 323.384 190.22 322.68C189.772 321.965 189.201 321.608 188.508 321.608C187.868 321.608 187.318 321.971 186.86 322.696Z" fill="#828282"/>
<path d="M213.352 325.736C213.352 327.368 213.032 328.675 212.392 329.656C211.752 330.637 210.84 331.128 209.656 331.128C208.557 331.128 207.677 330.637 207.016 329.656C206.355 328.675 206.024 327.368 206.024 325.736C206.024 324.093 206.355 322.797 207.016 321.848C207.688 320.888 208.568 320.408 209.656 320.408C210.787 320.408 211.683 320.888 212.344 321.848C213.016 322.797 213.352 324.093 213.352 325.736ZM208.008 322.696C207.549 323.411 207.32 324.424 207.32 325.736C207.32 327.048 207.544 328.077 207.992 328.824C208.44 329.56 208.995 329.928 209.656 329.928C210.392 329.928 210.973 329.565 211.4 328.84C211.837 328.115 212.056 327.08 212.056 325.736C212.056 324.403 211.827 323.384 211.368 322.68C210.92 321.965 210.349 321.608 209.656 321.608C209.016 321.608 208.467 321.971 208.008 322.696ZM220.679 328.12C220.679 328.973 220.38 329.683 219.783 330.248C219.186 330.813 218.343 331.096 217.255 331.096C216.252 331.096 215.383 330.92 214.647 330.568V329.304C215.436 329.72 216.295 329.928 217.223 329.928C217.906 329.928 218.434 329.752 218.807 329.4C219.191 329.048 219.383 328.589 219.383 328.024C219.383 327.459 219.17 327.027 218.743 326.728C218.327 326.419 217.724 326.264 216.935 326.264H216.263V325.16H216.935C217.532 325.16 218.034 324.995 218.439 324.664C218.855 324.323 219.063 323.869 219.063 323.304C219.063 322.739 218.887 322.312 218.535 322.024C218.183 321.736 217.698 321.592 217.079 321.592C216.343 321.592 215.639 321.811 214.967 322.248V321.016C215.586 320.621 216.3 320.424 217.111 320.424C218.146 320.424 218.946 320.691 219.511 321.224C220.087 321.747 220.375 322.397 220.375 323.176C220.375 323.741 220.231 324.248 219.943 324.696C219.666 325.144 219.25 325.48 218.695 325.704C219.303 325.843 219.783 326.125 220.135 326.552C220.498 326.968 220.679 327.491 220.679 328.12ZM224.308 324.92C224.308 325.187 224.218 325.411 224.036 325.592C223.855 325.763 223.631 325.848 223.364 325.848C223.098 325.848 222.874 325.763 222.692 325.592C222.522 325.411 222.436 325.187 222.436 324.92C222.436 324.664 222.522 324.445 222.692 324.264C222.874 324.083 223.098 323.992 223.364 323.992C223.631 323.992 223.855 324.083 224.036 324.264C224.218 324.445 224.308 324.664 224.308 324.92ZM224.036 329.416C224.218 329.597 224.308 329.821 224.308 330.088C224.308 330.355 224.218 330.579 224.036 330.76C223.855 330.931 223.631 331.016 223.364 331.016C223.098 331.016 222.874 330.931 222.692 330.76C222.522 330.579 222.436 330.355 222.436 330.088C222.436 329.821 222.522 329.597 222.692 329.416C222.874 329.235 223.098 329.144 223.364 329.144C223.631 329.144 223.855 329.235 224.036 329.416ZM233.274 325.736C233.274 327.368 232.954 328.675 232.314 329.656C231.674 330.637 230.762 331.128 229.578 331.128C228.479 331.128 227.599 330.637 226.938 329.656C226.276 328.675 225.946 327.368 225.946 325.736C225.946 324.093 226.276 322.797 226.938 321.848C227.61 320.888 228.49 320.408 229.578 320.408C230.708 320.408 231.604 320.888 232.266 321.848C232.938 322.797 233.274 324.093 233.274 325.736ZM227.93 322.696C227.471 323.411 227.242 324.424 227.242 325.736C227.242 327.048 227.466 328.077 227.914 328.824C228.362 329.56 228.916 329.928 229.578 329.928C230.314 329.928 230.895 329.565 231.322 328.84C231.759 328.115 231.978 327.08 231.978 325.736C231.978 324.403 231.748 323.384 231.29 322.68C230.842 321.965 230.271 321.608 229.578 321.608C228.938 321.608 228.388 321.971 227.93 322.696ZM241.977 325.736C241.977 327.368 241.657 328.675 241.017 329.656C240.377 330.637 239.465 331.128 238.281 331.128C237.182 331.128 236.302 330.637 235.641 329.656C234.98 328.675 234.649 327.368 234.649 325.736C234.649 324.093 234.98 322.797 235.641 321.848C236.313 320.888 237.193 320.408 238.281 320.408C239.412 320.408 240.308 320.888 240.969 321.848C241.641 322.797 241.977 324.093 241.977 325.736ZM236.633 322.696C236.174 323.411 235.945 324.424 235.945 325.736C235.945 327.048 236.169 328.077 236.617 328.824C237.065 329.56 237.62 329.928 238.281 329.928C239.017 329.928 239.598 329.565 240.025 328.84C240.462 328.115 240.681 327.08 240.681 325.736C240.681 324.403 240.452 323.384 239.993 322.68C239.545 321.965 238.974 321.608 238.281 321.608C237.641 321.608 237.092 321.971 236.633 322.696Z" fill="#828282"/>
<path d="M263.258 325.736C263.258 327.368 262.938 328.675 262.298 329.656C261.658 330.637 260.746 331.128 259.562 331.128C258.464 331.128 257.584 330.637 256.922 329.656C256.261 328.675 255.93 327.368 255.93 325.736C255.93 324.093 256.261 322.797 256.922 321.848C257.594 320.888 258.474 320.408 259.562 320.408C260.693 320.408 261.589 320.888 262.25 321.848C262.922 322.797 263.258 324.093 263.258 325.736ZM257.914 322.696C257.456 323.411 257.226 324.424 257.226 325.736C257.226 327.048 257.45 328.077 257.898 328.824C258.346 329.56 258.901 329.928 259.562 329.928C260.298 329.928 260.88 329.565 261.306 328.84C261.744 328.115 261.962 327.08 261.962 325.736C261.962 324.403 261.733 323.384 261.274 322.68C260.826 321.965 260.256 321.608 259.562 321.608C258.922 321.608 258.373 321.971 257.914 322.696ZM265.897 327.352H269.401V321.288L265.897 327.352ZM270.649 331H269.401V328.456H264.617V327.352L268.601 320.536H270.649V327.352H272.201V328.456H270.649V331ZM275.402 324.92C275.402 325.187 275.311 325.411 275.13 325.592C274.949 325.763 274.725 325.848 274.458 325.848C274.191 325.848 273.967 325.763 273.786 325.592C273.615 325.411 273.53 325.187 273.53 324.92C273.53 324.664 273.615 324.445 273.786 324.264C273.967 324.083 274.191 323.992 274.458 323.992C274.725 323.992 274.949 324.083 275.13 324.264C275.311 324.445 275.402 324.664 275.402 324.92ZM275.13 329.416C275.311 329.597 275.402 329.821 275.402 330.088C275.402 330.355 275.311 330.579 275.13 330.76C274.949 330.931 274.725 331.016 274.458 331.016C274.191 331.016 273.967 330.931 273.786 330.76C273.615 330.579 273.53 330.355 273.53 330.088C273.53 329.821 273.615 329.597 273.786 329.416C273.967 329.235 274.191 329.144 274.458 329.144C274.725 329.144 274.949 329.235 275.13 329.416ZM284.368 325.736C284.368 327.368 284.048 328.675 283.408 329.656C282.768 330.637 281.856 331.128 280.672 331.128C279.573 331.128 278.693 330.637 278.032 329.656C277.37 328.675 277.04 327.368 277.04 325.736C277.04 324.093 277.37 322.797 278.032 321.848C278.704 320.888 279.584 320.408 280.672 320.408C281.802 320.408 282.698 320.888 283.36 321.848C284.032 322.797 284.368 324.093 284.368 325.736ZM279.024 322.696C278.565 323.411 278.336 324.424 278.336 325.736C278.336 327.048 278.56 328.077 279.008 328.824C279.456 329.56 280.01 329.928 280.672 329.928C281.408 329.928 281.989 329.565 282.416 328.84C282.853 328.115 283.072 327.08 283.072 325.736C283.072 324.403 282.842 323.384 282.384 322.68C281.936 321.965 281.365 321.608 280.672 321.608C280.032 321.608 279.482 321.971 279.024 322.696ZM293.071 325.736C293.071 327.368 292.751 328.675 292.111 329.656C291.471 330.637 290.559 331.128 289.375 331.128C288.276 331.128 287.396 330.637 286.735 329.656C286.073 328.675 285.743 327.368 285.743 325.736C285.743 324.093 286.073 322.797 286.735 321.848C287.407 320.888 288.287 320.408 289.375 320.408C290.505 320.408 291.401 320.888 292.063 321.848C292.735 322.797 293.071 324.093 293.071 325.736ZM287.727 322.696C287.268 323.411 287.039 324.424 287.039 325.736C287.039 327.048 287.263 328.077 287.711 328.824C288.159 329.56 288.713 329.928 289.375 329.928C290.111 329.928 290.692 329.565 291.119 328.84C291.556 328.115 291.775 327.08 291.775 325.736C291.775 324.403 291.545 323.384 291.087 322.68C290.639 321.965 290.068 321.608 289.375 321.608C288.735 321.608 288.185 321.971 287.727 322.696Z" fill="#828282"/>
<path d="M314.508 325.736C314.508 327.368 314.188 328.675 313.548 329.656C312.908 330.637 311.996 331.128 310.812 331.128C309.714 331.128 308.834 330.637 308.172 329.656C307.511 328.675 307.18 327.368 307.18 325.736C307.18 324.093 307.511 322.797 308.172 321.848C308.844 320.888 309.724 320.408 310.812 320.408C311.943 320.408 312.839 320.888 313.5 321.848C314.172 322.797 314.508 324.093 314.508 325.736ZM309.164 322.696C308.706 323.411 308.476 324.424 308.476 325.736C308.476 327.048 308.7 328.077 309.148 328.824C309.596 329.56 310.151 329.928 310.812 329.928C311.548 329.928 312.13 329.565 312.556 328.84C312.994 328.115 313.212 327.08 313.212 325.736C313.212 324.403 312.983 323.384 312.524 322.68C312.076 321.965 311.506 321.608 310.812 321.608C310.172 321.608 309.623 321.971 309.164 322.696ZM322.619 327.736C322.619 328.771 322.278 329.597 321.595 330.216C320.923 330.824 320.001 331.128 318.827 331.128C317.771 331.128 316.875 330.947 316.139 330.584V329.336C316.822 329.741 317.649 329.944 318.619 329.944C320.411 329.944 321.307 329.192 321.307 327.688C321.307 327.08 321.099 326.611 320.683 326.28C320.267 325.939 319.729 325.768 319.067 325.768C318.289 325.768 317.483 325.955 316.651 326.328V320.536H321.899V321.64H317.899V324.776C318.379 324.669 318.795 324.616 319.147 324.616C320.214 324.616 321.057 324.899 321.675 325.464C322.305 326.029 322.619 326.787 322.619 327.736ZM326.152 324.92C326.152 325.187 326.061 325.411 325.88 325.592C325.699 325.763 325.475 325.848 325.208 325.848C324.941 325.848 324.717 325.763 324.536 325.592C324.365 325.411 324.28 325.187 324.28 324.92C324.28 324.664 324.365 324.445 324.536 324.264C324.717 324.083 324.941 323.992 325.208 323.992C325.475 323.992 325.699 324.083 325.88 324.264C326.061 324.445 326.152 324.664 326.152 324.92ZM325.88 329.416C326.061 329.597 326.152 329.821 326.152 330.088C326.152 330.355 326.061 330.579 325.88 330.76C325.699 330.931 325.475 331.016 325.208 331.016C324.941 331.016 324.717 330.931 324.536 330.76C324.365 330.579 324.28 330.355 324.28 330.088C324.28 329.821 324.365 329.597 324.536 329.416C324.717 329.235 324.941 329.144 325.208 329.144C325.475 329.144 325.699 329.235 325.88 329.416ZM335.118 325.736C335.118 327.368 334.798 328.675 334.158 329.656C333.518 330.637 332.606 331.128 331.422 331.128C330.323 331.128 329.443 330.637 328.782 329.656C328.12 328.675 327.79 327.368 327.79 325.736C327.79 324.093 328.12 322.797 328.782 321.848C329.454 320.888 330.334 320.408 331.422 320.408C332.552 320.408 333.448 320.888 334.11 321.848C334.782 322.797 335.118 324.093 335.118 325.736ZM329.774 322.696C329.315 323.411 329.086 324.424 329.086 325.736C329.086 327.048 329.31 328.077 329.758 328.824C330.206 329.56 330.76 329.928 331.422 329.928C332.158 329.928 332.739 329.565 333.166 328.84C333.603 328.115 333.822 327.08 333.822 325.736C333.822 324.403 333.592 323.384 333.134 322.68C332.686 321.965 332.115 321.608 331.422 321.608C330.782 321.608 330.232 321.971 329.774 322.696ZM343.821 325.736C343.821 327.368 343.501 328.675 342.861 329.656C342.221 330.637 341.309 331.128 340.125 331.128C339.026 331.128 338.146 330.637 337.485 329.656C336.823 328.675 336.493 327.368 336.493 325.736C336.493 324.093 336.823 322.797 337.485 321.848C338.157 320.888 339.037 320.408 340.125 320.408C341.255 320.408 342.151 320.888 342.813 321.848C343.485 322.797 343.821 324.093 343.821 325.736ZM338.477 322.696C338.018 323.411 337.789 324.424 337.789 325.736C337.789 327.048 338.013 328.077 338.461 328.824C338.909 329.56 339.463 329.928 340.125 329.928C340.861 329.928 341.442 329.565 341.869 328.84C342.306 328.115 342.525 327.08 342.525 325.736C342.525 324.403 342.295 323.384 341.837 322.68C341.389 321.965 340.818 321.608 340.125 321.608C339.485 321.608 338.935 321.971 338.477 322.696Z" fill="#828282"/>
<path d="M365.368 325.736C365.368 327.368 365.048 328.675 364.408 329.656C363.768 330.637 362.856 331.128 361.672 331.128C360.573 331.128 359.693 330.637 359.032 329.656C358.37 328.675 358.04 327.368 358.04 325.736C358.04 324.093 358.37 322.797 359.032 321.848C359.704 320.888 360.584 320.408 361.672 320.408C362.802 320.408 363.698 320.888 364.36 321.848C365.032 322.797 365.368 324.093 365.368 325.736ZM360.024 322.696C359.565 323.411 359.336 324.424 359.336 325.736C359.336 327.048 359.56 328.077 360.008 328.824C360.456 329.56 361.01 329.928 361.672 329.928C362.408 329.928 362.989 329.565 363.416 328.84C363.853 328.115 364.072 327.08 364.072 325.736C364.072 324.403 363.842 323.384 363.384 322.68C362.936 321.965 362.365 321.608 361.672 321.608C361.032 321.608 360.482 321.971 360.024 322.696ZM373.895 327.592C373.895 328.659 373.591 329.523 372.983 330.184C372.385 330.845 371.591 331.176 370.599 331.176C369.404 331.176 368.487 330.723 367.847 329.816C367.207 328.909 366.887 327.725 366.887 326.264C366.887 324.525 367.313 323.085 368.167 321.944C369.02 320.803 370.193 320.232 371.687 320.232C372.167 320.232 372.657 320.312 373.159 320.472V321.704C372.7 321.501 372.215 321.4 371.703 321.4C370.7 321.4 369.9 321.779 369.303 322.536C368.705 323.283 368.337 324.227 368.199 325.368C368.903 324.632 369.772 324.264 370.807 324.264C371.767 324.264 372.519 324.568 373.063 325.176C373.617 325.784 373.895 326.589 373.895 327.592ZM370.599 330.008C371.207 330.008 371.687 329.784 372.039 329.336C372.401 328.888 372.583 328.301 372.583 327.576C372.583 326.915 372.401 326.387 372.039 325.992C371.687 325.597 371.223 325.4 370.647 325.4C369.687 325.4 368.855 325.789 368.151 326.568C368.193 327.699 368.439 328.557 368.887 329.144C369.335 329.72 369.905 330.008 370.599 330.008ZM377.293 324.92C377.293 325.187 377.202 325.411 377.021 325.592C376.839 325.763 376.615 325.848 376.349 325.848C376.082 325.848 375.858 325.763 375.677 325.592C375.506 325.411 375.421 325.187 375.421 324.92C375.421 324.664 375.506 324.445 375.677 324.264C375.858 324.083 376.082 323.992 376.349 323.992C376.615 323.992 376.839 324.083 377.021 324.264C377.202 324.445 377.293 324.664 377.293 324.92ZM377.021 329.416C377.202 329.597 377.293 329.821 377.293 330.088C377.293 330.355 377.202 330.579 377.021 330.76C376.839 330.931 376.615 331.016 376.349 331.016C376.082 331.016 375.858 330.931 375.677 330.76C375.506 330.579 375.421 330.355 375.421 330.088C375.421 329.821 375.506 329.597 375.677 329.416C375.858 329.235 376.082 329.144 376.349 329.144C376.615 329.144 376.839 329.235 377.021 329.416ZM386.258 325.736C386.258 327.368 385.938 328.675 385.298 329.656C384.658 330.637 383.746 331.128 382.562 331.128C381.464 331.128 380.584 330.637 379.922 329.656C379.261 328.675 378.93 327.368 378.93 325.736C378.93 324.093 379.261 322.797 379.922 321.848C380.594 320.888 381.474 320.408 382.562 320.408C383.693 320.408 384.589 320.888 385.25 321.848C385.922 322.797 386.258 324.093 386.258 325.736ZM380.914 322.696C380.456 323.411 380.226 324.424 380.226 325.736C380.226 327.048 380.45 328.077 380.898 328.824C381.346 329.56 381.901 329.928 382.562 329.928C383.298 329.928 383.88 329.565 384.306 328.84C384.744 328.115 384.962 327.08 384.962 325.736C384.962 324.403 384.733 323.384 384.274 322.68C383.826 321.965 383.256 321.608 382.562 321.608C381.922 321.608 381.373 321.971 380.914 322.696ZM394.961 325.736C394.961 327.368 394.641 328.675 394.001 329.656C393.361 330.637 392.449 331.128 391.265 331.128C390.167 331.128 389.287 330.637 388.625 329.656C387.964 328.675 387.633 327.368 387.633 325.736C387.633 324.093 387.964 322.797 388.625 321.848C389.297 320.888 390.177 320.408 391.265 320.408C392.396 320.408 393.292 320.888 393.953 321.848C394.625 322.797 394.961 324.093 394.961 325.736ZM389.617 322.696C389.159 323.411 388.929 324.424 388.929 325.736C388.929 327.048 389.153 328.077 389.601 328.824C390.049 329.56 390.604 329.928 391.265 329.928C392.001 329.928 392.583 329.565 393.009 328.84C393.447 328.115 393.665 327.08 393.665 325.736C393.665 324.403 393.436 323.384 392.977 322.68C392.529 321.965 391.959 321.608 391.265 321.608C390.625 321.608 390.076 321.971 389.617 322.696Z" fill="#828282"/>
<path d="M416.469 325.736C416.469 327.368 416.149 328.675 415.509 329.656C414.869 330.637 413.957 331.128 412.773 331.128C411.674 331.128 410.794 330.637 410.133 329.656C409.472 328.675 409.141 327.368 409.141 325.736C409.141 324.093 409.472 322.797 410.133 321.848C410.805 320.888 411.685 320.408 412.773 320.408C413.904 320.408 414.8 320.888 415.461 321.848C416.133 322.797 416.469 324.093 416.469 325.736ZM411.125 322.696C410.666 323.411 410.437 324.424 410.437 325.736C410.437 327.048 410.661 328.077 411.109 328.824C411.557 329.56 412.112 329.928 412.773 329.928C413.509 329.928 414.09 329.565 414.517 328.84C414.954 328.115 415.173 327.08 415.173 325.736C415.173 324.403 414.944 323.384 414.485 322.68C414.037 321.965 413.466 321.608 412.773 321.608C412.133 321.608 411.584 321.971 411.125 322.696ZM419.844 331H418.5L422.836 321.64H417.348V320.536H424.18V321.64L419.844 331ZM427.191 324.92C427.191 325.187 427.1 325.411 426.919 325.592C426.738 325.763 426.514 325.848 426.247 325.848C425.98 325.848 425.756 325.763 425.575 325.592C425.404 325.411 425.319 325.187 425.319 324.92C425.319 324.664 425.404 324.445 425.575 324.264C425.756 324.083 425.98 323.992 426.247 323.992C426.514 323.992 426.738 324.083 426.919 324.264C427.1 324.445 427.191 324.664 427.191 324.92ZM426.919 329.416C427.1 329.597 427.191 329.821 427.191 330.088C427.191 330.355 427.1 330.579 426.919 330.76C426.738 330.931 426.514 331.016 426.247 331.016C425.98 331.016 425.756 330.931 425.575 330.76C425.404 330.579 425.319 330.355 425.319 330.088C425.319 329.821 425.404 329.597 425.575 329.416C425.756 329.235 425.98 329.144 426.247 329.144C426.514 329.144 426.738 329.235 426.919 329.416ZM436.157 325.736C436.157 327.368 435.837 328.675 435.197 329.656C434.557 330.637 433.645 331.128 432.461 331.128C431.362 331.128 430.482 330.637 429.821 329.656C429.159 328.675 428.829 327.368 428.829 325.736C428.829 324.093 429.159 322.797 429.821 321.848C430.493 320.888 431.373 320.408 432.461 320.408C433.591 320.408 434.487 320.888 435.149 321.848C435.821 322.797 436.157 324.093 436.157 325.736ZM430.813 322.696C430.354 323.411 430.125 324.424 430.125 325.736C430.125 327.048 430.349 328.077 430.797 328.824C431.245 329.56 431.799 329.928 432.461 329.928C433.197 329.928 433.778 329.565 434.205 328.84C434.642 328.115 434.861 327.08 434.861 325.736C434.861 324.403 434.631 323.384 434.173 322.68C433.725 321.965 433.154 321.608 432.461 321.608C431.821 321.608 431.271 321.971 430.813 322.696ZM444.86 325.736C444.86 327.368 444.54 328.675 443.9 329.656C443.26 330.637 442.348 331.128 441.164 331.128C440.065 331.128 439.185 330.637 438.524 329.656C437.862 328.675 437.532 327.368 437.532 325.736C437.532 324.093 437.862 322.797 438.524 321.848C439.196 320.888 440.076 320.408 441.164 320.408C442.294 320.408 443.19 320.888 443.852 321.848C444.524 322.797 444.86 324.093 444.86 325.736ZM439.516 322.696C439.057 323.411 438.828 324.424 438.828 325.736C438.828 327.048 439.052 328.077 439.5 328.824C439.948 329.56 440.502 329.928 441.164 329.928C441.9 329.928 442.481 329.565 442.908 328.84C443.345 328.115 443.564 327.08 443.564 325.736C443.564 324.403 443.334 323.384 442.876 322.68C442.428 321.965 441.857 321.608 441.164 321.608C440.524 321.608 439.974 321.971 439.516 322.696Z" fill="#828282"/>
<path d="M466.289 325.736C466.289 327.368 465.969 328.675 465.329 329.656C464.689 330.637 463.777 331.128 462.593 331.128C461.495 331.128 460.615 330.637 459.953 329.656C459.292 328.675 458.961 327.368 458.961 325.736C458.961 324.093 459.292 322.797 459.953 321.848C460.625 320.888 461.505 320.408 462.593 320.408C463.724 320.408 464.62 320.888 465.281 321.848C465.953 322.797 466.289 324.093 466.289 325.736ZM460.945 322.696C460.487 323.411 460.257 324.424 460.257 325.736C460.257 327.048 460.481 328.077 460.929 328.824C461.377 329.56 461.932 329.928 462.593 329.928C463.329 329.928 463.911 329.565 464.337 328.84C464.775 328.115 464.993 327.08 464.993 325.736C464.993 324.403 464.764 323.384 464.305 322.68C463.857 321.965 463.287 321.608 462.593 321.608C461.953 321.608 461.404 321.971 460.945 322.696ZM474.737 328.28C474.737 329.144 474.401 329.837 473.729 330.36C473.057 330.872 472.214 331.128 471.201 331.128C470.23 331.128 469.419 330.877 468.769 330.376C468.118 329.875 467.793 329.203 467.793 328.36C467.793 327.731 467.958 327.197 468.289 326.76C468.63 326.312 469.094 325.987 469.681 325.784C468.539 325.347 467.969 324.541 467.969 323.368C467.969 322.44 468.289 321.72 468.929 321.208C469.569 320.685 470.326 320.424 471.201 320.424C472.107 320.424 472.881 320.68 473.521 321.192C474.161 321.693 474.481 322.424 474.481 323.384C474.481 323.928 474.331 324.408 474.033 324.824C473.734 325.229 473.323 325.539 472.801 325.752C474.091 326.147 474.737 326.989 474.737 328.28ZM469.073 328.296C469.073 328.787 469.259 329.197 469.633 329.528C470.006 329.848 470.534 330.008 471.217 330.008C471.931 330.008 472.481 329.832 472.865 329.48C473.249 329.128 473.441 328.691 473.441 328.168C473.441 327.656 473.254 327.224 472.881 326.872C472.507 326.52 471.953 326.349 471.217 326.36C470.502 326.371 469.963 326.563 469.601 326.936C469.249 327.299 469.073 327.752 469.073 328.296ZM469.249 323.352C469.249 323.96 469.435 324.419 469.809 324.728C470.193 325.037 470.678 325.192 471.265 325.192C471.83 325.192 472.294 325.032 472.657 324.712C473.019 324.381 473.201 323.923 473.201 323.336C473.201 322.824 473.03 322.397 472.689 322.056C472.347 321.715 471.851 321.544 471.201 321.544C470.603 321.544 470.129 321.72 469.777 322.072C469.425 322.424 469.249 322.851 469.249 323.352ZM478.371 324.92C478.371 325.187 478.28 325.411 478.099 325.592C477.917 325.763 477.693 325.848 477.427 325.848C477.16 325.848 476.936 325.763 476.755 325.592C476.584 325.411 476.499 325.187 476.499 324.92C476.499 324.664 476.584 324.445 476.755 324.264C476.936 324.083 477.16 323.992 477.427 323.992C477.693 323.992 477.917 324.083 478.099 324.264C478.28 324.445 478.371 324.664 478.371 324.92ZM478.099 329.416C478.28 329.597 478.371 329.821 478.371 330.088C478.371 330.355 478.28 330.579 478.099 330.76C477.917 330.931 477.693 331.016 477.427 331.016C477.16 331.016 476.936 330.931 476.755 330.76C476.584 330.579 476.499 330.355 476.499 330.088C476.499 329.821 476.584 329.597 476.755 329.416C476.936 329.235 477.16 329.144 477.427 329.144C477.693 329.144 477.917 329.235 478.099 329.416ZM487.336 325.736C487.336 327.368 487.016 328.675 486.376 329.656C485.736 330.637 484.824 331.128 483.64 331.128C482.542 331.128 481.662 330.637 481 329.656C480.339 328.675 480.008 327.368 480.008 325.736C480.008 324.093 480.339 322.797 481 321.848C481.672 320.888 482.552 320.408 483.64 320.408C484.771 320.408 485.667 320.888 486.328 321.848C487 322.797 487.336 324.093 487.336 325.736ZM481.992 322.696C481.534 323.411 481.304 324.424 481.304 325.736C481.304 327.048 481.528 328.077 481.976 328.824C482.424 329.56 482.979 329.928 483.64 329.928C484.376 329.928 484.958 329.565 485.384 328.84C485.822 328.115 486.04 327.08 486.04 325.736C486.04 324.403 485.811 323.384 485.352 322.68C484.904 321.965 484.334 321.608 483.64 321.608C483 321.608 482.451 321.971 481.992 322.696ZM496.039 325.736C496.039 327.368 495.719 328.675 495.079 329.656C494.439 330.637 493.527 331.128 492.343 331.128C491.245 331.128 490.365 330.637 489.703 329.656C489.042 328.675 488.711 327.368 488.711 325.736C488.711 324.093 489.042 322.797 489.703 321.848C490.375 320.888 491.255 320.408 492.343 320.408C493.474 320.408 494.37 320.888 495.031 321.848C495.703 322.797 496.039 324.093 496.039 325.736ZM490.695 322.696C490.237 323.411 490.007 324.424 490.007 325.736C490.007 327.048 490.231 328.077 490.679 328.824C491.127 329.56 491.682 329.928 492.343 329.928C493.079 329.928 493.661 329.565 494.087 328.84C494.525 328.115 494.743 327.08 494.743 325.736C494.743 324.403 494.514 323.384 494.055 322.68C493.607 321.965 493.037 321.608 492.343 321.608C491.703 321.608 491.154 321.971 490.695 322.696Z" fill="#828282"/>
<line x1="34.5" y1="295" x2="34.5" y2="1" stroke="#F6F6F6"/>
<line x1="85.5" y1="295" x2="85.5" y2="1" stroke="#F6F6F6"/>
<line x1="136.5" y1="295" x2="136.5" y2="1" stroke="#F6F6F6"/>
<line x1="187.5" y1="295" x2="187.5" y2="1" stroke="#F6F6F6"/>
<line x1="238.5" y1="295" x2="238.5" y2="1" stroke="#F6F6F6"/>
<line x1="289.5" y1="295" x2="289.5" y2="1" stroke="#F6F6F6"/>
<line x1="340.5" y1="295" x2="340.5" y2="1" stroke="#F6F6F6"/>
<line x1="391.5" y1="295" x2="391.5" y2="1" stroke="#F6F6F6"/>
<line x1="442.5" y1="295" x2="442.5" y2="1" stroke="#F6F6F6"/>
<line x1="496.5" y1="295" x2="496.5" y2="2" stroke="#F6F6F6"/>
<path d="M118.795 179.877C65.9908 159.455 40.2633 207.74 34 234.435V295H497V110.803C497 101.793 497.5 100.5 487.846 104.796C480.282 108.162 430.031 147.342 386.188 156.852C342.345 166.362 315.365 98.2892 257.069 119.812C226.716 135.829 184.8 205.404 118.795 179.877Z" fill="url(#paint0_linear_1_112)"/>
<path d="M35 234C41.2562 207.29 66.955 158.979 119.7 179.412C185.631 204.953 227.5 135.34 257.819 119.315C316.05 97.7797 343 165.89 386.794 156.375C430.587 146.859 480.5 107 488.337 104.29C496.86 101.344 493.131 102.501 496.5 102" stroke="#FF3F40" stroke-linecap="round"/>
<line x1="251.75" y1="294" x2="251.75" y2="125.14" stroke="#FF3F40" stroke-width="0.5" stroke-dasharray="4 4"/>
<circle cx="252" cy="123" r="4.5" fill="#FF3F40" stroke="white"/>
<path fill-rule="evenodd" clip-rule="evenodd" d="M228 76C223.582 76 220 79.5817 220 84V97.8874C220 102.306 223.582 105.887 228 105.887H248.206L251.065 111.58C251.434 112.315 252.483 112.315 252.852 111.58L255.711 105.887H277C281.418 105.887 285 102.306 285 97.8874V84C285 79.5817 281.418 76 277 76H228Z" fill="#FF3F40"/>
<path d="M236.589 88.84C236.589 89.496 236.345 90.032 235.857 90.448C235.377 90.856 234.701 91.06 233.829 91.06C233.021 91.06 232.333 90.928 231.765 90.664V89.26C232.389 89.596 233.045 89.764 233.733 89.764C234.165 89.764 234.501 89.664 234.741 89.464C234.989 89.256 235.113 88.992 235.113 88.672C235.113 87.976 234.549 87.628 233.421 87.628H232.965V86.416H233.421C233.845 86.416 234.201 86.324 234.489 86.14C234.777 85.956 234.921 85.696 234.921 85.36C234.921 84.688 234.509 84.352 233.685 84.352C233.141 84.352 232.597 84.52 232.053 84.856V83.5C232.597 83.204 233.169 83.056 233.769 83.056C234.593 83.056 235.237 83.256 235.701 83.656C236.173 84.056 236.409 84.568 236.409 85.192C236.409 86.096 235.997 86.712 235.173 87.04C235.621 87.152 235.969 87.364 236.217 87.676C236.465 87.98 236.589 88.368 236.589 88.84ZM238.24 92.512H236.992L238.168 89.548H239.836L238.24 92.512ZM242.135 88H244.199V84.052L242.135 88ZM245.639 91H244.199V89.236H240.707V88L243.323 83.14H245.639V88H246.671V89.236H245.639V91ZM252.548 88.444C252.548 89.244 252.284 89.884 251.756 90.364C251.228 90.844 250.488 91.084 249.536 91.084C248.712 91.084 248.02 90.944 247.46 90.664V89.284C247.988 89.604 248.6 89.764 249.296 89.764C250.472 89.764 251.06 89.312 251.06 88.408C251.06 88.056 250.932 87.78 250.676 87.58C250.428 87.38 250.072 87.28 249.608 87.28C249 87.28 248.404 87.416 247.82 87.688V83.14H252.044V84.376H249.236V86.104C249.468 86.056 249.692 86.032 249.908 86.032C250.748 86.032 251.396 86.248 251.852 86.68C252.316 87.112 252.548 87.7 252.548 88.444ZM254.143 92.512H252.895L254.071 89.548H255.739L254.143 92.512ZM262.237 88.456C262.237 89.248 261.997 89.904 261.517 90.424C261.037 90.936 260.385 91.192 259.561 91.192C258.625 91.192 257.913 90.852 257.425 90.172C256.937 89.484 256.693 88.568 256.693 87.424C256.693 86.096 257.041 85.024 257.737 84.208C258.433 83.384 259.341 82.972 260.461 82.972C260.893 82.972 261.285 83.036 261.637 83.164V84.52C261.325 84.36 260.965 84.28 260.557 84.28C259.917 84.28 259.397 84.496 258.997 84.928C258.597 85.36 258.341 85.916 258.229 86.596C258.709 86.156 259.277 85.936 259.933 85.936C260.629 85.936 261.185 86.164 261.601 86.62C262.025 87.076 262.237 87.688 262.237 88.456ZM259.573 89.896C259.933 89.896 260.217 89.768 260.425 89.512C260.641 89.248 260.749 88.9 260.749 88.468C260.749 88.076 260.645 87.764 260.437 87.532C260.229 87.3 259.945 87.184 259.585 87.184C259.065 87.184 258.593 87.404 258.169 87.844C258.217 88.548 258.365 89.068 258.613 89.404C258.869 89.732 259.189 89.896 259.573 89.896ZM264.436 88H266.5V84.052L264.436 88ZM267.94 91H266.5V89.236H263.008V88L265.624 83.14H267.94V88H268.972V89.236H267.94V91ZM275.28 88.456C275.28 89.248 275.04 89.904 274.56 90.424C274.08 90.936 273.428 91.192 272.604 91.192C271.668 91.192 270.956 90.852 270.468 90.172C269.98 89.484 269.736 88.568 269.736 87.424C269.736 86.096 270.084 85.024 270.78 84.208C271.476 83.384 272.384 82.972 273.504 82.972C273.936 82.972 274.328 83.036 274.68 83.164V84.52C274.368 84.36 274.008 84.28 273.6 84.28C272.96 84.28 272.44 84.496 272.04 84.928C271.64 85.36 271.384 85.916 271.272 86.596C271.752 86.156 272.32 85.936 272.976 85.936C273.672 85.936 274.228 86.164 274.644 86.62C275.068 87.076 275.28 87.688 275.28 88.456ZM272.616 89.896C272.976 89.896 273.26 89.768 273.468 89.512C273.684 89.248 273.792 88.9 273.792 88.468C273.792 88.076 273.688 87.764 273.48 87.532C273.272 87.3 272.988 87.184 272.628 87.184C272.108 87.184 271.636 87.404 271.212 87.844C271.26 88.548 271.408 89.068 271.656 89.404C271.912 89.732 272.232 89.896 272.616 89.896Z" fill="white"/>
<path d="M243.11 99.632H244.424V97.358L243.11 99.632ZM244.892 101H244.424V100.046H242.63V99.632L244.124 97.076H244.892V99.632H245.474V100.046H244.892V101ZM246.674 98.72C246.674 98.82 246.64 98.904 246.572 98.972C246.504 99.036 246.42 99.068 246.32 99.068C246.22 99.068 246.136 99.036 246.068 98.972C246.004 98.904 245.972 98.82 245.972 98.72C245.972 98.624 246.004 98.542 246.068 98.474C246.136 98.406 246.22 98.372 246.32 98.372C246.42 98.372 246.504 98.406 246.572 98.474C246.64 98.542 246.674 98.624 246.674 98.72ZM246.572 100.406C246.64 100.474 246.674 100.558 246.674 100.658C246.674 100.758 246.64 100.842 246.572 100.91C246.504 100.974 246.42 101.006 246.32 101.006C246.22 101.006 246.136 100.974 246.068 100.91C246.004 100.842 245.972 100.758 245.972 100.658C245.972 100.558 246.004 100.474 246.068 100.406C246.136 100.338 246.22 100.304 246.32 100.304C246.42 100.304 246.504 100.338 246.572 100.406ZM248.512 101H248.044V97.592L247.138 98.15V97.64L248.068 97.076H248.512V101ZM251.976 99.026C251.976 99.638 251.856 100.128 251.616 100.496C251.376 100.864 251.034 101.048 250.59 101.048C250.178 101.048 249.848 100.864 249.6 100.496C249.352 100.128 249.228 99.638 249.228 99.026C249.228 98.41 249.352 97.924 249.6 97.568C249.852 97.208 250.182 97.028 250.59 97.028C251.014 97.028 251.35 97.208 251.598 97.568C251.85 97.924 251.976 98.41 251.976 99.026ZM249.972 97.886C249.8 98.154 249.714 98.534 249.714 99.026C249.714 99.518 249.798 99.904 249.966 100.184C250.134 100.46 250.342 100.598 250.59 100.598C250.866 100.598 251.084 100.462 251.244 100.19C251.408 99.918 251.49 99.53 251.49 99.026C251.49 98.526 251.404 98.144 251.232 97.88C251.064 97.612 250.85 97.478 250.59 97.478C250.35 97.478 250.144 97.614 249.972 97.886ZM254.895 99.296L254.817 99.524H256.251L256.173 99.29L255.543 97.346C255.495 97.518 255.279 98.168 254.895 99.296ZM254.319 101H253.797L255.207 96.956H255.879L257.265 101H256.743L256.389 99.938H254.679L254.319 101ZM258.384 101H257.898L258.192 96.956H258.81L259.344 98.432L259.992 100.316C260.224 99.66 260.452 99.032 260.676 98.432L261.234 96.956H261.852L262.206 101H261.72L261.582 99.404L261.438 97.61C261.226 98.202 261.008 98.8 260.784 99.404L260.22 100.91H259.758L259.224 99.404L258.612 97.646C258.612 97.802 258.574 98.388 258.498 99.404L258.384 101Z" fill="white"/>
<defs>
<linearGradient id="paint0_linear_1_112" x1="265.5" y1="103" x2="265.5" y2="295" gradientUnits="userSpaceOnUse">
<stop stop-color="#FED576" stop-opacity="0.4"/>
<stop offset="1" stop-color="#FED576" stop-opacity="0"/>
</linearGradient>
</defs>
</svg>
