<svg width="514" height="339" viewBox="0 0 514 339" fill="none" xmlns="http://www.w3.org/2000/svg">
<path d="M3.03175 18H1.68775L6.02375 8.64H0.53575V7.536H7.36775V8.64L3.03175 18ZM15.5785 12.736C15.5785 14.368 15.2585 15.6747 14.6185 16.656C13.9785 17.6373 13.0665 18.128 11.8825 18.128C10.7838 18.128 9.90383 17.6373 9.2425 16.656C8.58117 15.6747 8.2505 14.368 8.2505 12.736C8.2505 11.0933 8.58117 9.79733 9.2425 8.848C9.9145 7.888 10.7945 7.408 11.8825 7.408C13.0132 7.408 13.9092 7.888 14.5705 8.848C15.2425 9.79733 15.5785 11.0933 15.5785 12.736ZM10.2345 9.696C9.77583 10.4107 9.5465 11.424 9.5465 12.736C9.5465 14.048 9.7705 15.0773 10.2185 15.824C10.6665 16.56 11.2212 16.928 11.8825 16.928C12.6185 16.928 13.1998 16.5653 13.6265 15.84C14.0638 15.1147 14.2825 14.08 14.2825 12.736C14.2825 11.4027 14.0532 10.384 13.5945 9.68C13.1465 8.96533 12.5758 8.608 11.8825 8.608C11.2425 8.608 10.6932 8.97067 10.2345 9.696ZM24.2816 12.736C24.2816 14.368 23.9616 15.6747 23.3216 16.656C22.6816 17.6373 21.7696 18.128 20.5856 18.128C19.487 18.128 18.607 17.6373 17.9456 16.656C17.2843 15.6747 16.9536 14.368 16.9536 12.736C16.9536 11.0933 17.2843 9.79733 17.9456 8.848C18.6176 7.888 19.4976 7.408 20.5856 7.408C21.7163 7.408 22.6123 7.888 23.2736 8.848C23.9456 9.79733 24.2816 11.0933 24.2816 12.736ZM18.9376 9.696C18.479 10.4107 18.2496 11.424 18.2496 12.736C18.2496 14.048 18.4736 15.0773 18.9216 15.824C19.3696 16.56 19.9243 16.928 20.5856 16.928C21.3216 16.928 21.903 16.5653 22.3296 15.84C22.767 15.1147 22.9856 14.08 22.9856 12.736C22.9856 11.4027 22.7563 10.384 22.2976 9.68C21.8496 8.96533 21.279 8.608 20.5856 8.608C19.9456 8.608 19.3963 8.97067 18.9376 9.696ZM27.3848 18H26.1368V6.752H27.3848V18ZM29.0328 13.744L32.3288 18H30.8088L27.5448 13.744L30.7288 9.888H32.2328L29.0328 13.744Z" fill="#828282"/>
<path d="M8.08219 52.592C8.08219 53.6587 7.77819 54.5227 7.17019 55.184C6.57285 55.8453 5.77819 56.176 4.78619 56.176C3.59152 56.176 2.67419 55.7227 2.03419 54.816C1.39419 53.9093 1.07419 52.7253 1.07419 51.264C1.07419 49.5253 1.50085 48.0853 2.35419 46.944C3.20752 45.8027 4.38085 45.232 5.87419 45.232C6.35419 45.232 6.84485 45.312 7.34619 45.472V46.704C6.88752 46.5013 6.40219 46.4 5.89019 46.4C4.88752 46.4 4.08752 46.7787 3.49019 47.536C2.89285 48.2827 2.52485 49.2267 2.38619 50.368C3.09019 49.632 3.95952 49.264 4.99419 49.264C5.95419 49.264 6.70619 49.568 7.25019 50.176C7.80485 50.784 8.08219 51.5893 8.08219 52.592ZM4.78619 55.008C5.39419 55.008 5.87419 54.784 6.22619 54.336C6.58885 53.888 6.77019 53.3013 6.77019 52.576C6.77019 51.9147 6.58885 51.3867 6.22619 50.992C5.87419 50.5973 5.41019 50.4 4.83419 50.4C3.87419 50.4 3.04219 50.7893 2.33819 51.568C2.38085 52.6987 2.62619 53.5573 3.07419 54.144C3.52219 54.72 4.09285 55.008 4.78619 55.008ZM16.6801 50.736C16.6801 52.368 16.3601 53.6747 15.7201 54.656C15.0801 55.6373 14.1681 56.128 12.9841 56.128C11.8854 56.128 11.0054 55.6373 10.3441 54.656C9.68273 53.6747 9.35206 52.368 9.35206 50.736C9.35206 49.0933 9.68273 47.7973 10.3441 46.848C11.0161 45.888 11.8961 45.408 12.9841 45.408C14.1147 45.408 15.0107 45.888 15.6721 46.848C16.3441 47.7973 16.6801 49.0933 16.6801 50.736ZM11.3361 47.696C10.8774 48.4107 10.6481 49.424 10.6481 50.736C10.6481 52.048 10.8721 53.0773 11.3201 53.824C11.7681 54.56 12.3227 54.928 12.9841 54.928C13.7201 54.928 14.3014 54.5653 14.7281 53.84C15.1654 53.1147 15.3841 52.08 15.3841 50.736C15.3841 49.4027 15.1547 48.384 14.6961 47.68C14.2481 46.9653 13.6774 46.608 12.9841 46.608C12.3441 46.608 11.7947 46.9707 11.3361 47.696ZM25.3832 50.736C25.3832 52.368 25.0632 53.6747 24.4232 54.656C23.7832 55.6373 22.8712 56.128 21.6872 56.128C20.5885 56.128 19.7085 55.6373 19.0472 54.656C18.3859 53.6747 18.0552 52.368 18.0552 50.736C18.0552 49.0933 18.3859 47.7973 19.0472 46.848C19.7192 45.888 20.5992 45.408 21.6872 45.408C22.8179 45.408 23.7139 45.888 24.3752 46.848C25.0472 47.7973 25.3832 49.0933 25.3832 50.736ZM20.0392 47.696C19.5805 48.4107 19.3512 49.424 19.3512 50.736C19.3512 52.048 19.5752 53.0773 20.0232 53.824C20.4712 54.56 21.0259 54.928 21.6872 54.928C22.4232 54.928 23.0045 54.5653 23.4312 53.84C23.8685 53.1147 24.0872 52.08 24.0872 50.736C24.0872 49.4027 23.8579 48.384 23.3992 47.68C22.9512 46.9653 22.3805 46.608 21.6872 46.608C21.0472 46.608 20.4979 46.9707 20.0392 47.696ZM28.4863 56H27.2383V44.752H28.4863V56ZM30.1343 51.744L33.4303 56H31.9103L28.6463 51.744L31.8303 47.888H33.3343L30.1343 51.744Z" fill="#828282"/>
<path d="M7.80681 90.736C7.80681 91.7707 7.46548 92.5973 6.78281 93.216C6.11081 93.824 5.18815 94.128 4.01481 94.128C2.95881 94.128 2.06281 93.9467 1.32681 93.584V92.336C2.00948 92.7413 2.83615 92.944 3.80681 92.944C5.59881 92.944 6.49481 92.192 6.49481 90.688C6.49481 90.08 6.28681 89.6107 5.87081 89.28C5.45481 88.9387 4.91615 88.768 4.25481 88.768C3.47615 88.768 2.67081 88.9547 1.83881 89.328V83.536H7.08681V84.64H3.08681V87.776C3.56681 87.6693 3.98281 87.616 4.33481 87.616C5.40148 87.616 6.24415 87.8987 6.86281 88.464C7.49215 89.0293 7.80681 89.7867 7.80681 90.736ZM16.5394 88.736C16.5394 90.368 16.2194 91.6747 15.5794 92.656C14.9394 93.6373 14.0274 94.128 12.8434 94.128C11.7448 94.128 10.8648 93.6373 10.2034 92.656C9.5421 91.6747 9.21144 90.368 9.21144 88.736C9.21144 87.0933 9.5421 85.7973 10.2034 84.848C10.8754 83.888 11.7554 83.408 12.8434 83.408C13.9741 83.408 14.8701 83.888 15.5314 84.848C16.2034 85.7973 16.5394 87.0933 16.5394 88.736ZM11.1954 85.696C10.7368 86.4107 10.5074 87.424 10.5074 88.736C10.5074 90.048 10.7314 91.0773 11.1794 91.824C11.6274 92.56 12.1821 92.928 12.8434 92.928C13.5794 92.928 14.1608 92.5653 14.5874 91.84C15.0248 91.1147 15.2434 90.08 15.2434 88.736C15.2434 87.4027 15.0141 86.384 14.5554 85.68C14.1074 84.9653 13.5368 84.608 12.8434 84.608C12.2034 84.608 11.6541 84.9707 11.1954 85.696ZM25.2426 88.736C25.2426 90.368 24.9226 91.6747 24.2826 92.656C23.6426 93.6373 22.7306 94.128 21.5466 94.128C20.4479 94.128 19.5679 93.6373 18.9066 92.656C18.2452 91.6747 17.9146 90.368 17.9146 88.736C17.9146 87.0933 18.2452 85.7973 18.9066 84.848C19.5786 83.888 20.4586 83.408 21.5466 83.408C22.6772 83.408 23.5732 83.888 24.2346 84.848C24.9066 85.7973 25.2426 87.0933 25.2426 88.736ZM19.8986 85.696C19.4399 86.4107 19.2106 87.424 19.2106 88.736C19.2106 90.048 19.4346 91.0773 19.8826 91.824C20.3306 92.56 20.8852 92.928 21.5466 92.928C22.2826 92.928 22.8639 92.5653 23.2906 91.84C23.7279 91.1147 23.9466 90.08 23.9466 88.736C23.9466 87.4027 23.7172 86.384 23.2586 85.68C22.8106 84.9653 22.2399 84.608 21.5466 84.608C20.9066 84.608 20.3572 84.9707 19.8986 85.696ZM28.3457 94H27.0977V82.752H28.3457V94ZM29.9937 89.744L33.2897 94H31.7697L28.5057 89.744L31.6897 85.888H33.1937L29.9937 89.744Z" fill="#828282"/>
<path d="M2.08481 128.352H5.58881V122.288L2.08481 128.352ZM6.83681 132H5.58881V129.456H0.804813V128.352L4.78881 121.536H6.83681V128.352H8.38881V129.456H6.83681V132ZM16.7894 126.736C16.7894 128.368 16.4694 129.675 15.8294 130.656C15.1894 131.637 14.2774 132.128 13.0934 132.128C11.9948 132.128 11.1148 131.637 10.4534 130.656C9.7921 129.675 9.46144 128.368 9.46144 126.736C9.46144 125.093 9.7921 123.797 10.4534 122.848C11.1254 121.888 12.0054 121.408 13.0934 121.408C14.2241 121.408 15.1201 121.888 15.7814 122.848C16.4534 123.797 16.7894 125.093 16.7894 126.736ZM11.4454 123.696C10.9868 124.411 10.7574 125.424 10.7574 126.736C10.7574 128.048 10.9814 129.077 11.4294 129.824C11.8774 130.56 12.4321 130.928 13.0934 130.928C13.8294 130.928 14.4108 130.565 14.8374 129.84C15.2748 129.115 15.4934 128.08 15.4934 126.736C15.4934 125.403 15.2641 124.384 14.8054 123.68C14.3574 122.965 13.7868 122.608 13.0934 122.608C12.4534 122.608 11.9041 122.971 11.4454 123.696ZM25.4926 126.736C25.4926 128.368 25.1726 129.675 24.5326 130.656C23.8926 131.637 22.9806 132.128 21.7966 132.128C20.6979 132.128 19.8179 131.637 19.1566 130.656C18.4952 129.675 18.1646 128.368 18.1646 126.736C18.1646 125.093 18.4952 123.797 19.1566 122.848C19.8286 121.888 20.7086 121.408 21.7966 121.408C22.9272 121.408 23.8232 121.888 24.4846 122.848C25.1566 123.797 25.4926 125.093 25.4926 126.736ZM20.1486 123.696C19.6899 124.411 19.4606 125.424 19.4606 126.736C19.4606 128.048 19.6846 129.077 20.1326 129.824C20.5806 130.56 21.1352 130.928 21.7966 130.928C22.5326 130.928 23.1139 130.565 23.5406 129.84C23.9779 129.115 24.1966 128.08 24.1966 126.736C24.1966 125.403 23.9672 124.384 23.5086 123.68C23.0606 122.965 22.4899 122.608 21.7966 122.608C21.1566 122.608 20.6072 122.971 20.1486 123.696ZM28.5957 132H27.3477V120.752H28.5957V132ZM30.2437 127.744L33.5397 132H32.0197L28.7557 127.744L31.9397 123.888H33.4437L30.2437 127.744Z" fill="#828282"/>
<path d="M6.86656 167.12C6.86656 167.973 6.5679 168.683 5.97056 169.248C5.37323 169.813 4.53056 170.096 3.44256 170.096C2.4399 170.096 1.57056 169.92 0.834563 169.568V168.304C1.6239 168.72 2.48256 168.928 3.41056 168.928C4.09323 168.928 4.62123 168.752 4.99456 168.4C5.37856 168.048 5.57056 167.589 5.57056 167.024C5.57056 166.459 5.35723 166.027 4.93056 165.728C4.51456 165.419 3.9119 165.264 3.12256 165.264H2.45056V164.16H3.12256C3.7199 164.16 4.22123 163.995 4.62656 163.664C5.04256 163.323 5.25056 162.869 5.25056 162.304C5.25056 161.739 5.07456 161.312 4.72256 161.024C4.37056 160.736 3.88523 160.592 3.26656 160.592C2.53056 160.592 1.82656 160.811 1.15456 161.248V160.016C1.77323 159.621 2.4879 159.424 3.29856 159.424C4.33323 159.424 5.13323 159.691 5.69856 160.224C6.27456 160.747 6.56256 161.397 6.56256 162.176C6.56256 162.741 6.41856 163.248 6.13056 163.696C5.85323 164.144 5.43723 164.48 4.88256 164.704C5.49056 164.843 5.97056 165.125 6.32256 165.552C6.68523 165.968 6.86656 166.491 6.86656 167.12ZM15.6957 164.736C15.6957 166.368 15.3757 167.675 14.7357 168.656C14.0957 169.637 13.1837 170.128 11.9997 170.128C10.901 170.128 10.021 169.637 9.35969 168.656C8.69835 167.675 8.36769 166.368 8.36769 164.736C8.36769 163.093 8.69835 161.797 9.35969 160.848C10.0317 159.888 10.9117 159.408 11.9997 159.408C13.1304 159.408 14.0264 159.888 14.6877 160.848C15.3597 161.797 15.6957 163.093 15.6957 164.736ZM10.3517 161.696C9.89302 162.411 9.66369 163.424 9.66369 164.736C9.66369 166.048 9.88769 167.077 10.3357 167.824C10.7837 168.56 11.3384 168.928 11.9997 168.928C12.7357 168.928 13.317 168.565 13.7437 167.84C14.181 167.115 14.3997 166.08 14.3997 164.736C14.3997 163.403 14.1704 162.384 13.7117 161.68C13.2637 160.965 12.693 160.608 11.9997 160.608C11.3597 160.608 10.8104 160.971 10.3517 161.696ZM24.3988 164.736C24.3988 166.368 24.0788 167.675 23.4388 168.656C22.7988 169.637 21.8868 170.128 20.7028 170.128C19.6041 170.128 18.7241 169.637 18.0628 168.656C17.4015 167.675 17.0708 166.368 17.0708 164.736C17.0708 163.093 17.4015 161.797 18.0628 160.848C18.7348 159.888 19.6148 159.408 20.7028 159.408C21.8335 159.408 22.7295 159.888 23.3908 160.848C24.0628 161.797 24.3988 163.093 24.3988 164.736ZM19.0548 161.696C18.5961 162.411 18.3668 163.424 18.3668 164.736C18.3668 166.048 18.5908 167.077 19.0388 167.824C19.4868 168.56 20.0415 168.928 20.7028 168.928C21.4388 168.928 22.0201 168.565 22.4468 167.84C22.8841 167.115 23.1028 166.08 23.1028 164.736C23.1028 163.403 22.8735 162.384 22.4148 161.68C21.9668 160.965 21.3961 160.608 20.7028 160.608C20.0628 160.608 19.5135 160.971 19.0548 161.696ZM27.5019 170H26.2539V158.752H27.5019V170ZM29.1499 165.744L32.4459 170H30.9259L27.6619 165.744L30.8459 161.888H32.3499L29.1499 165.744Z" fill="#828282"/>
<path d="M7.216 208H0.608V206.928C3.91467 204.432 5.568 202.352 5.568 200.688C5.568 200.027 5.376 199.52 4.992 199.168C4.608 198.805 4.09067 198.624 3.44 198.624C2.59733 198.624 1.76533 198.939 0.944 199.568V198.304C1.70133 197.717 2.57067 197.424 3.552 197.424C4.49067 197.424 5.28 197.696 5.92 198.24C6.56 198.784 6.88 199.557 6.88 200.56C6.88 202.448 5.37067 204.56 2.352 206.896H7.216V208ZM15.9223 202.736C15.9223 204.368 15.6023 205.675 14.9623 206.656C14.3223 207.637 13.4103 208.128 12.2263 208.128C11.1276 208.128 10.2476 207.637 9.58625 206.656C8.92492 205.675 8.59425 204.368 8.59425 202.736C8.59425 201.093 8.92492 199.797 9.58625 198.848C10.2583 197.888 11.1383 197.408 12.2263 197.408C13.3569 197.408 14.2529 197.888 14.9143 198.848C15.5863 199.797 15.9223 201.093 15.9223 202.736ZM10.5783 199.696C10.1196 200.411 9.89025 201.424 9.89025 202.736C9.89025 204.048 10.1143 205.077 10.5623 205.824C11.0103 206.56 11.5649 206.928 12.2263 206.928C12.9623 206.928 13.5436 206.565 13.9703 205.84C14.4076 205.115 14.6263 204.08 14.6263 202.736C14.6263 201.403 14.3969 200.384 13.9383 199.68C13.4903 198.965 12.9196 198.608 12.2263 198.608C11.5863 198.608 11.0369 198.971 10.5783 199.696ZM24.6254 202.736C24.6254 204.368 24.3054 205.675 23.6654 206.656C23.0254 207.637 22.1134 208.128 20.9294 208.128C19.8307 208.128 18.9507 207.637 18.2894 206.656C17.628 205.675 17.2974 204.368 17.2974 202.736C17.2974 201.093 17.628 199.797 18.2894 198.848C18.9614 197.888 19.8414 197.408 20.9294 197.408C22.06 197.408 22.956 197.888 23.6174 198.848C24.2894 199.797 24.6254 201.093 24.6254 202.736ZM19.2814 199.696C18.8227 200.411 18.5934 201.424 18.5934 202.736C18.5934 204.048 18.8174 205.077 19.2654 205.824C19.7134 206.56 20.268 206.928 20.9294 206.928C21.6654 206.928 22.2467 206.565 22.6734 205.84C23.1107 205.115 23.3294 204.08 23.3294 202.736C23.3294 201.403 23.1 200.384 22.6414 199.68C22.1934 198.965 21.6227 198.608 20.9294 198.608C20.2894 198.608 19.74 198.971 19.2814 199.696ZM27.7285 208H26.4805V196.752H27.7285V208ZM29.3765 203.744L32.6725 208H31.1525L27.8885 203.744L31.0725 199.888H32.5765L29.3765 203.744Z" fill="#828282"/>
<path d="M4.31919 246H3.07119V236.912L0.655188 238.4V237.04L3.13519 235.536H4.31919V246ZM13.5551 240.736C13.5551 242.368 13.2351 243.675 12.5951 244.656C11.9551 245.637 11.0431 246.128 9.85906 246.128C8.7604 246.128 7.8804 245.637 7.21906 244.656C6.55773 243.675 6.22706 242.368 6.22706 240.736C6.22706 239.093 6.55773 237.797 7.21906 236.848C7.89106 235.888 8.77106 235.408 9.85906 235.408C10.9897 235.408 11.8857 235.888 12.5471 236.848C13.2191 237.797 13.5551 239.093 13.5551 240.736ZM8.21106 237.696C7.7524 238.411 7.52306 239.424 7.52306 240.736C7.52306 242.048 7.74706 243.077 8.19506 243.824C8.64306 244.56 9.19773 244.928 9.85906 244.928C10.5951 244.928 11.1764 244.565 11.6031 243.84C12.0404 243.115 12.2591 242.08 12.2591 240.736C12.2591 239.403 12.0297 238.384 11.5711 237.68C11.1231 236.965 10.5524 236.608 9.85906 236.608C9.21906 236.608 8.66973 236.971 8.21106 237.696ZM22.2582 240.736C22.2582 242.368 21.9382 243.675 21.2982 244.656C20.6582 245.637 19.7462 246.128 18.5622 246.128C17.4635 246.128 16.5835 245.637 15.9222 244.656C15.2609 243.675 14.9302 242.368 14.9302 240.736C14.9302 239.093 15.2609 237.797 15.9222 236.848C16.5942 235.888 17.4742 235.408 18.5622 235.408C19.6929 235.408 20.5889 235.888 21.2502 236.848C21.9222 237.797 22.2582 239.093 22.2582 240.736ZM16.9142 237.696C16.4555 238.411 16.2262 239.424 16.2262 240.736C16.2262 242.048 16.4502 243.077 16.8982 243.824C17.3462 244.56 17.9009 244.928 18.5622 244.928C19.2982 244.928 19.8795 244.565 20.3062 243.84C20.7435 243.115 20.9622 242.08 20.9622 240.736C20.9622 239.403 20.7329 238.384 20.2742 237.68C19.8262 236.965 19.2555 236.608 18.5622 236.608C17.9222 236.608 17.3729 236.971 16.9142 237.696ZM25.3613 246H24.1133V234.752H25.3613V246ZM27.0093 241.744L30.3053 246H28.7853L25.5213 241.744L28.7053 237.888H30.2093L27.0093 241.744Z" fill="#828282"/>
<path d="M8.16444 278.736C8.16444 280.368 7.84444 281.675 7.20444 282.656C6.56444 283.637 5.65244 284.128 4.46844 284.128C3.36977 284.128 2.48977 283.637 1.82844 282.656C1.1671 281.675 0.836438 280.368 0.836438 278.736C0.836438 277.093 1.1671 275.797 1.82844 274.848C2.50044 273.888 3.38044 273.408 4.46844 273.408C5.5991 273.408 6.4951 273.888 7.15644 274.848C7.82844 275.797 8.16444 277.093 8.16444 278.736ZM2.82044 275.696C2.36177 276.411 2.13244 277.424 2.13244 278.736C2.13244 280.048 2.35644 281.077 2.80444 281.824C3.25244 282.56 3.8071 282.928 4.46844 282.928C5.20444 282.928 5.78577 282.565 6.21244 281.84C6.64977 281.115 6.86844 280.08 6.86844 278.736C6.86844 277.403 6.6391 276.384 6.18044 275.68C5.73244 274.965 5.16177 274.608 4.46844 274.608C3.82844 274.608 3.2791 274.971 2.82044 275.696Z" fill="#828282"/>
<path d="M81.887 328.232C81.887 330.077 81.0497 331 79.375 331C78.7777 331 78.271 330.883 77.855 330.648V329.4C78.2817 329.677 78.7297 329.816 79.199 329.816C80.127 329.816 80.591 329.325 80.591 328.344V320.216H81.887V328.232ZM86.7574 330.024C87.3334 330.024 87.792 329.864 88.1334 329.544C88.4747 329.213 88.6454 328.797 88.6454 328.296V327.256H87.2374C86.5547 327.256 86.0427 327.389 85.7014 327.656C85.36 327.923 85.1894 328.259 85.1894 328.664C85.1894 329.069 85.3227 329.4 85.5894 329.656C85.856 329.901 86.2454 330.024 86.7574 330.024ZM88.6614 330.04C88.2454 330.733 87.488 331.08 86.3894 331.08C85.632 331.08 85.0187 330.856 84.5494 330.408C84.0907 329.96 83.8614 329.395 83.8614 328.712C83.8614 327.933 84.1547 327.331 84.7414 326.904C85.3387 326.467 86.1494 326.248 87.1734 326.248H88.6454V325.832C88.6454 325.192 88.5014 324.712 88.2134 324.392C87.9254 324.061 87.44 323.896 86.7574 323.896C85.8934 323.896 85.1254 324.125 84.4534 324.584V323.32C85.0614 322.947 85.8614 322.76 86.8534 322.76C88.8907 322.76 89.9094 323.795 89.9094 325.864V331H88.6614V330.04ZM98.5524 331H97.2884V325.752C97.2884 325.155 97.1337 324.701 96.8244 324.392C96.5257 324.072 96.131 323.912 95.6404 323.912C95.0324 323.912 94.5044 324.147 94.0564 324.616C93.619 325.085 93.4004 325.736 93.4004 326.568V331H92.1524V322.888H93.4004V324.296C93.8804 323.283 94.7337 322.776 95.9604 322.776C96.7497 322.776 97.379 323.016 97.8484 323.496C98.3177 323.976 98.5524 324.616 98.5524 325.416V331Z" fill="#828282"/>
<path d="M126.936 326.312H122.872V331H121.576V320.216H127.496V321.352H122.872V325.176H126.936V326.312ZM135.26 330.584C134.631 330.915 133.863 331.08 132.956 331.08C131.729 331.08 130.737 330.707 129.98 329.96C129.233 329.203 128.86 328.205 128.86 326.968C128.86 325.677 129.196 324.659 129.868 323.912C130.54 323.165 131.404 322.792 132.46 322.792C133.473 322.792 134.279 323.117 134.876 323.768C135.473 324.419 135.772 325.341 135.772 326.536C135.772 326.877 135.745 327.192 135.692 327.48H130.156C130.252 328.28 130.556 328.893 131.068 329.32C131.58 329.747 132.252 329.96 133.084 329.96C133.991 329.96 134.716 329.773 135.26 329.4V330.584ZM132.46 323.896C131.852 323.896 131.335 324.115 130.908 324.552C130.481 324.989 130.231 325.613 130.156 326.424H134.508V326.104C134.508 325.432 134.327 324.899 133.964 324.504C133.601 324.099 133.1 323.896 132.46 323.896ZM139.011 331H137.747V319.688H139.011V324.104C139.598 323.208 140.419 322.76 141.475 322.76C142.499 322.76 143.337 323.155 143.987 323.944C144.638 324.723 144.963 325.747 144.963 327.016C144.963 328.157 144.654 329.128 144.035 329.928C143.427 330.728 142.585 331.128 141.507 331.128C140.419 331.128 139.587 330.685 139.011 329.8V331ZM139.011 326.888C139.011 327.965 139.241 328.749 139.699 329.24C140.169 329.731 140.734 329.976 141.395 329.976C142.046 329.976 142.585 329.704 143.011 329.16C143.438 328.616 143.651 327.907 143.651 327.032C143.651 326.029 143.427 325.261 142.979 324.728C142.542 324.184 141.987 323.912 141.315 323.912C140.739 323.912 140.211 324.152 139.731 324.632C139.251 325.112 139.011 325.864 139.011 326.888Z" fill="#828282"/>
<path d="M168.51 331H167.214L167.998 320.216H169.646L171.07 324.152L172.798 329.176C173.416 327.427 174.024 325.752 174.622 324.152L176.11 320.216H177.758L178.702 331H177.406L177.038 326.744L176.654 321.96C176.088 323.539 175.507 325.133 174.91 326.744L173.406 330.76H172.174L170.75 326.744L169.118 322.056C169.118 322.472 169.016 324.035 168.814 326.744L168.51 331ZM183.461 330.024C184.037 330.024 184.495 329.864 184.837 329.544C185.178 329.213 185.349 328.797 185.349 328.296V327.256H183.941C183.258 327.256 182.746 327.389 182.405 327.656C182.063 327.923 181.893 328.259 181.893 328.664C181.893 329.069 182.026 329.4 182.293 329.656C182.559 329.901 182.949 330.024 183.461 330.024ZM185.365 330.04C184.949 330.733 184.191 331.08 183.093 331.08C182.335 331.08 181.722 330.856 181.253 330.408C180.794 329.96 180.565 329.395 180.565 328.712C180.565 327.933 180.858 327.331 181.445 326.904C182.042 326.467 182.853 326.248 183.877 326.248H185.349V325.832C185.349 325.192 185.205 324.712 184.917 324.392C184.629 324.061 184.143 323.896 183.461 323.896C182.597 323.896 181.829 324.125 181.157 324.584V323.32C181.765 322.947 182.565 322.76 183.557 322.76C185.594 322.76 186.613 323.795 186.613 325.864V331H185.365V330.04ZM190.104 331H188.84L188.856 322.888H190.104V324.312C190.53 323.309 191.266 322.808 192.312 322.808C192.504 322.808 192.653 322.819 192.76 322.84V324.088C192.536 324.013 192.306 323.976 192.072 323.976C191.506 323.976 191.037 324.237 190.664 324.76C190.29 325.283 190.104 325.885 190.104 326.568V331Z" fill="#828282"/>
<path d="M216.652 326.456L216.444 327.064H220.268L220.06 326.44L218.38 321.256C218.252 321.715 217.676 323.448 216.652 326.456ZM215.116 331H213.724L217.484 320.216H219.276L222.972 331H221.58L220.636 328.168H216.076L215.116 331ZM225.955 334.152H224.707V322.888H225.955V324.12C226.52 323.213 227.358 322.76 228.467 322.76C229.544 322.76 230.387 323.155 230.995 323.944C231.614 324.723 231.923 325.699 231.923 326.872C231.923 328.12 231.598 329.144 230.947 329.944C230.307 330.733 229.47 331.128 228.435 331.128C227.368 331.128 226.542 330.675 225.955 329.768V334.152ZM225.955 326.952C225.955 327.987 226.195 328.749 226.675 329.24C227.155 329.731 227.688 329.976 228.275 329.976C228.958 329.976 229.518 329.709 229.955 329.176C230.392 328.632 230.611 327.864 230.611 326.872C230.611 325.987 230.398 325.272 229.971 324.728C229.544 324.184 229.006 323.912 228.355 323.912C227.704 323.912 227.139 324.152 226.659 324.632C226.19 325.101 225.955 325.875 225.955 326.952ZM235.033 331H233.769L233.785 322.888H235.033V324.312C235.46 323.309 236.196 322.808 237.241 322.808C237.433 322.808 237.583 322.819 237.689 322.84V324.088C237.465 324.013 237.236 323.976 237.001 323.976C236.436 323.976 235.967 324.237 235.593 324.76C235.22 325.283 235.033 325.885 235.033 326.568V331Z" fill="#828282"/>
<path d="M260.674 331H259.378L260.162 320.216H261.81L263.234 324.152L264.962 329.176C265.58 327.427 266.188 325.752 266.786 324.152L268.274 320.216H269.922L270.866 331H269.57L269.202 326.744L268.818 321.96C268.252 323.539 267.671 325.133 267.074 326.744L265.57 330.76H264.338L262.914 326.744L261.282 322.056C261.282 322.472 261.18 324.035 260.978 326.744L260.674 331ZM275.625 330.024C276.201 330.024 276.659 329.864 277.001 329.544C277.342 329.213 277.513 328.797 277.513 328.296V327.256H276.105C275.422 327.256 274.91 327.389 274.569 327.656C274.227 327.923 274.057 328.259 274.057 328.664C274.057 329.069 274.19 329.4 274.457 329.656C274.723 329.901 275.113 330.024 275.625 330.024ZM277.529 330.04C277.113 330.733 276.355 331.08 275.257 331.08C274.499 331.08 273.886 330.856 273.417 330.408C272.958 329.96 272.729 329.395 272.729 328.712C272.729 327.933 273.022 327.331 273.609 326.904C274.206 326.467 275.017 326.248 276.041 326.248H277.513V325.832C277.513 325.192 277.369 324.712 277.081 324.392C276.793 324.061 276.307 323.896 275.625 323.896C274.761 323.896 273.993 324.125 273.321 324.584V323.32C273.929 322.947 274.729 322.76 275.721 322.76C277.758 322.76 278.777 323.795 278.777 325.864V331H277.529V330.04ZM284.54 330.792C284.124 331.891 283.628 332.664 283.052 333.112C282.486 333.56 281.836 333.784 281.1 333.784C280.822 333.784 280.598 333.757 280.428 333.704V332.568C280.588 332.611 280.769 332.632 280.972 332.632C282.049 332.632 282.812 332.019 283.26 330.792L279.98 322.888H281.404L282.46 325.56L283.884 329.24C283.969 328.963 284.396 327.736 285.164 325.56L286.108 322.888H287.468L284.54 330.792Z" fill="#828282"/>
<path d="M313.004 328.232C313.004 330.077 312.167 331 310.492 331C309.895 331 309.388 330.883 308.972 330.648V329.4C309.399 329.677 309.847 329.816 310.316 329.816C311.244 329.816 311.708 329.325 311.708 328.344V320.216H313.004V328.232ZM321.699 331H320.435V329.592C320.008 330.595 319.16 331.096 317.891 331.096C317.091 331.096 316.456 330.861 315.987 330.392C315.528 329.912 315.299 329.272 315.299 328.472V322.888H316.563V328.152C316.563 328.739 316.712 329.187 317.011 329.496C317.309 329.805 317.715 329.96 318.227 329.96C318.899 329.96 319.432 329.725 319.827 329.256C320.232 328.787 320.435 328.152 320.435 327.352V322.888H321.699V331ZM330.435 331H329.171V325.752C329.171 325.155 329.017 324.701 328.707 324.392C328.409 324.072 328.014 323.912 327.523 323.912C326.915 323.912 326.387 324.147 325.939 324.616C325.502 325.085 325.283 325.736 325.283 326.568V331H324.035V322.888H325.283V324.296C325.763 323.283 326.617 322.776 327.843 322.776C328.633 322.776 329.262 323.016 329.731 323.496C330.201 323.976 330.435 324.616 330.435 325.416V331Z" fill="#828282"/>
<path d="M356.957 328.232C356.957 330.077 356.12 331 354.445 331C353.848 331 353.341 330.883 352.925 330.648V329.4C353.352 329.677 353.8 329.816 354.269 329.816C355.197 329.816 355.661 329.325 355.661 328.344V320.216H356.957V328.232ZM365.652 331H364.388V329.592C363.961 330.595 363.113 331.096 361.844 331.096C361.044 331.096 360.409 330.861 359.94 330.392C359.481 329.912 359.252 329.272 359.252 328.472V322.888H360.516V328.152C360.516 328.739 360.665 329.187 360.964 329.496C361.262 329.805 361.668 329.96 362.18 329.96C362.852 329.96 363.385 329.725 363.78 329.256C364.185 328.787 364.388 328.152 364.388 327.352V322.888H365.652V331ZM369.316 331H368.052V319.688H369.316V331Z" fill="#828282"/>
<path d="M394.59 326.456L394.382 327.064H398.206L397.998 326.44L396.318 321.256C396.19 321.715 395.614 323.448 394.59 326.456ZM393.054 331H391.662L395.422 320.216H397.214L400.91 331H399.518L398.574 328.168H394.014L393.054 331ZM408.949 331H407.685V329.592C407.258 330.595 406.41 331.096 405.141 331.096C404.341 331.096 403.706 330.861 403.237 330.392C402.778 329.912 402.549 329.272 402.549 328.472V322.888H403.813V328.152C403.813 328.739 403.962 329.187 404.261 329.496C404.559 329.805 404.965 329.96 405.477 329.96C406.149 329.96 406.682 329.725 407.077 329.256C407.482 328.787 407.685 328.152 407.685 327.352V322.888H408.949V331ZM417.829 330.344C417.829 331.581 417.488 332.509 416.805 333.128C416.123 333.757 415.243 334.072 414.165 334.072C413.184 334.072 412.347 333.907 411.653 333.576V332.312C412.336 332.707 413.136 332.904 414.053 332.904C414.832 332.904 415.445 332.696 415.893 332.28C416.341 331.864 416.565 331.213 416.565 330.328V329.416C416.032 330.333 415.237 330.792 414.181 330.792C413.253 330.792 412.459 330.451 411.797 329.768C411.147 329.085 410.821 328.136 410.821 326.92C410.821 325.715 411.125 324.723 411.733 323.944C412.341 323.165 413.136 322.776 414.117 322.776C415.227 322.776 416.043 323.261 416.565 324.232V322.888H417.829V330.344ZM412.133 326.888C412.133 327.795 412.357 328.488 412.805 328.968C413.253 329.437 413.76 329.672 414.325 329.672C414.912 329.672 415.429 329.448 415.877 329C416.336 328.541 416.565 327.864 416.565 326.968C416.565 325.933 416.347 325.165 415.909 324.664C415.472 324.163 414.965 323.912 414.389 323.912C413.696 323.912 413.147 324.189 412.741 324.744C412.336 325.288 412.133 326.003 412.133 326.888Z" fill="#828282"/>
<path d="M446.558 328.136C446.558 329.085 446.233 329.821 445.582 330.344C444.931 330.856 444.094 331.112 443.07 331.112C441.939 331.112 440.979 330.883 440.19 330.424V329.032C440.969 329.619 441.918 329.912 443.038 329.912C443.71 329.912 444.238 329.763 444.622 329.464C445.006 329.165 445.198 328.733 445.198 328.168C445.198 327.933 445.15 327.725 445.054 327.544C444.969 327.352 444.819 327.181 444.606 327.032C444.403 326.872 444.206 326.744 444.014 326.648C443.833 326.541 443.582 326.413 443.262 326.264C443.198 326.232 443.102 326.189 442.974 326.136C442.515 325.933 442.163 325.768 441.918 325.64C441.683 325.512 441.401 325.325 441.07 325.08C440.75 324.824 440.515 324.531 440.366 324.2C440.217 323.869 440.142 323.485 440.142 323.048C440.142 322.131 440.467 321.416 441.118 320.904C441.779 320.381 442.606 320.12 443.598 320.12C444.526 320.12 445.315 320.285 445.966 320.616V321.976C445.315 321.549 444.537 321.336 443.63 321.336C442.979 321.336 442.462 321.491 442.078 321.8C441.694 322.099 441.502 322.493 441.502 322.984C441.502 323.24 441.55 323.469 441.646 323.672C441.753 323.875 441.934 324.067 442.19 324.248C442.446 324.419 442.665 324.552 442.846 324.648C443.027 324.733 443.31 324.861 443.694 325.032C444.057 325.192 444.334 325.32 444.526 325.416C444.718 325.501 444.963 325.645 445.262 325.848C445.571 326.04 445.801 326.232 445.95 326.424C446.11 326.605 446.249 326.851 446.366 327.16C446.494 327.459 446.558 327.784 446.558 328.136ZM454.565 330.584C453.935 330.915 453.167 331.08 452.261 331.08C451.034 331.08 450.042 330.707 449.285 329.96C448.538 329.203 448.165 328.205 448.165 326.968C448.165 325.677 448.501 324.659 449.173 323.912C449.845 323.165 450.709 322.792 451.765 322.792C452.778 322.792 453.583 323.117 454.181 323.768C454.778 324.419 455.077 325.341 455.077 326.536C455.077 326.877 455.05 327.192 454.997 327.48H449.461C449.557 328.28 449.861 328.893 450.373 329.32C450.885 329.747 451.557 329.96 452.389 329.96C453.295 329.96 454.021 329.773 454.565 329.4V330.584ZM451.765 323.896C451.157 323.896 450.639 324.115 450.213 324.552C449.786 324.989 449.535 325.613 449.461 326.424H453.813V326.104C453.813 325.432 453.631 324.899 453.269 324.504C452.906 324.099 452.405 323.896 451.765 323.896ZM458.252 334.152H457.004V322.888H458.252V324.12C458.817 323.213 459.655 322.76 460.764 322.76C461.841 322.76 462.684 323.155 463.292 323.944C463.911 324.723 464.22 325.699 464.22 326.872C464.22 328.12 463.895 329.144 463.244 329.944C462.604 330.733 461.767 331.128 460.732 331.128C459.665 331.128 458.839 330.675 458.252 329.768V334.152ZM458.252 326.952C458.252 327.987 458.492 328.749 458.972 329.24C459.452 329.731 459.985 329.976 460.572 329.976C461.255 329.976 461.815 329.709 462.252 329.176C462.689 328.632 462.908 327.864 462.908 326.872C462.908 325.987 462.695 325.272 462.268 324.728C461.841 324.184 461.303 323.912 460.652 323.912C460.001 323.912 459.436 324.152 458.956 324.632C458.487 325.101 458.252 325.875 458.252 326.952Z" fill="#828282"/>
<path d="M495.628 325.56C495.628 327.256 495.19 328.611 494.316 329.624C493.452 330.627 492.278 331.128 490.796 331.128C489.334 331.128 488.161 330.621 487.276 329.608C486.39 328.595 485.948 327.245 485.948 325.56C485.948 323.864 486.38 322.515 487.244 321.512C488.118 320.509 489.297 320.008 490.78 320.008C492.294 320.008 493.478 320.509 494.332 321.512C495.196 322.504 495.628 323.853 495.628 325.56ZM487.308 325.56C487.308 326.893 487.622 327.949 488.252 328.728C488.892 329.507 489.74 329.896 490.796 329.896C491.894 329.896 492.742 329.512 493.34 328.744C493.948 327.976 494.252 326.915 494.252 325.56C494.252 324.205 493.948 323.144 493.34 322.376C492.732 321.608 491.878 321.224 490.78 321.224C489.692 321.224 488.838 321.613 488.22 322.392C487.612 323.16 487.308 324.216 487.308 325.56ZM503.135 330.712C502.623 331.021 501.993 331.176 501.247 331.176C499.967 331.176 498.948 330.771 498.191 329.96C497.444 329.139 497.071 328.141 497.071 326.968C497.071 325.816 497.444 324.824 498.191 323.992C498.948 323.16 499.977 322.744 501.279 322.744C501.972 322.744 502.591 322.893 503.135 323.192V324.392C502.644 324.061 502.068 323.896 501.407 323.896C500.489 323.896 499.753 324.195 499.199 324.792C498.655 325.379 498.383 326.109 498.383 326.984C498.393 327.859 498.66 328.589 499.183 329.176C499.705 329.752 500.447 330.04 501.407 330.04C502.025 330.04 502.601 329.864 503.135 329.512V330.712ZM509.146 330.792C508.794 330.984 508.399 331.08 507.962 331.08C506.362 331.08 505.562 330.264 505.562 328.632V323.912H504.266V322.888H505.562V320.872H506.826V322.888H509.066V323.912H506.826V328.664C506.826 329.528 507.231 329.96 508.042 329.96C508.458 329.96 508.826 329.837 509.146 329.592V330.792Z" fill="#828282"/>
<line x1="52" y1="6.5" x2="514" y2="6.50004" stroke="#F6F6F6"/>
<line x1="52" y1="38.5" x2="514" y2="38.5001" stroke="#F6F6F6"/>
<line x1="52" y1="70.5001" x2="514" y2="70.5001" stroke="#F6F6F6"/>
<line x1="52" y1="102.5" x2="514" y2="102.5" stroke="#F6F6F6"/>
<line x1="52" y1="134.5" x2="514" y2="134.5" stroke="#F6F6F6"/>
<line x1="52" y1="166.5" x2="514" y2="166.5" stroke="#F6F6F6"/>
<line x1="52" y1="198.5" x2="514" y2="198.5" stroke="#F6F6F6"/>
<line x1="52" y1="230.5" x2="514" y2="230.5" stroke="#F6F6F6"/>
<line x1="52" y1="262.5" x2="514" y2="262.5" stroke="#F6F6F6"/>
<line x1="52" y1="294.5" x2="514" y2="294.5" stroke="#F6F6F6"/>
<line x1="51.5" y1="295" x2="51.5" y2="1" stroke="#F6F6F6"/>
<path d="M76 160C76 157.791 77.7909 156 80 156H96C98.2092 156 100 157.791 100 160V295H76V160Z" fill="#FF5B5A"/>
<path d="M124 74C124 71.7909 125.791 70 128 70H144C146.209 70 148 71.7909 148 74V295H124V74Z" fill="#58CEFF"/>
<path d="M172 208C172 205.791 173.791 204 176 204H188C190.209 204 192 205.791 192 208V295H172V208Z" fill="#4A52FF"/>
<path d="M216 142C216 139.791 217.791 138 220 138H232C234.209 138 236 139.791 236 142V295H216V142Z" fill="#00A28A"/>
<path d="M260 248C260 245.791 261.791 244 264 244H276C278.209 244 280 245.791 280 248V295H260V248Z" fill="#FF5B5A"/>
<path d="M304 233C304 230.791 305.791 229 308 229H320C322.209 229 324 230.791 324 233V295H304V233Z" fill="#AB53DB"/>
<path d="M348 43C348 40.7909 349.791 39 352 39H364C366.209 39 368 40.7909 368 43V295H348V43Z" fill="#FFBC54"/>
<path d="M392 142C392 139.791 393.791 138 396 138H408C410.209 138 412 139.791 412 142V295H392V142Z" fill="#FF5B5A"/>
<path d="M436 233C436 230.791 437.791 229 440 229H452C454.209 229 456 230.791 456 233V295H436V233Z" fill="#00A28A"/>
<path d="M480 172C480 169.791 481.791 168 484 168H496C498.209 168 500 169.791 500 172V295H480V172Z" fill="#58CEFF"/>
</svg>
