<svg width="16" height="16" viewBox="0 0 16 16" fill="none" xmlns="http://www.w3.org/2000/svg">
<path d="M14.0562 4.32031L11.0156 6.19375L8.09997 2.30469C8.08824 2.28904 8.07303 2.27633 8.05554 2.26758C8.03804 2.25883 8.01875 2.25427 7.99919 2.25427C7.97963 2.25427 7.96034 2.25883 7.94285 2.26758C7.92535 2.27633 7.91014 2.28904 7.89841 2.30469L4.98435 6.19375L1.94216 4.32031C1.8531 4.26563 1.73747 4.33906 1.75154 4.44375L2.94529 13.5156C2.96247 13.6391 3.06872 13.7344 3.19529 13.7344H12.8062C12.9312 13.7344 13.039 13.6406 13.0547 13.5156L14.2484 4.44375C14.2609 4.33906 14.1468 4.26563 14.0562 4.32031ZM12.0875 12.6656H3.91091L3.07029 6.26875L5.25466 7.61406L7.99997 3.95156L10.7453 7.61406L12.9297 6.26875L12.0875 12.6656ZM7.99997 7.95313C7.02966 7.95313 6.2406 8.74219 6.2406 9.7125C6.2406 10.6828 7.02966 11.4719 7.99997 11.4719C8.97029 11.4719 9.75935 10.6828 9.75935 9.7125C9.75935 8.74219 8.97029 7.95313 7.99997 7.95313ZM7.99997 10.4672C7.58435 10.4672 7.24685 10.1297 7.24685 9.7125C7.24685 9.29688 7.58435 8.95781 7.99997 8.95781C8.4156 8.95781 8.7531 9.29531 8.7531 9.7125C8.7531 10.1281 8.4156 10.4672 7.99997 10.4672Z" fill="#454256"/>
</svg>
