<svg width="16" height="16" viewBox="0 0 16 16" fill="none" xmlns="http://www.w3.org/2000/svg">
<path d="M14.339 2.32502L13.6765 1.66252C13.6515 1.63752 13.6203 1.62659 13.5875 1.62659C13.5547 1.62659 13.5234 1.63909 13.4984 1.66252L12.3093 2.85159C11.7924 2.50136 11.1822 2.31463 10.5578 2.31565C9.75778 2.31565 8.95779 2.62034 8.34685 3.23127L6.75466 4.82346C6.7314 4.84696 6.71835 4.87868 6.71835 4.91174C6.71835 4.94481 6.7314 4.97653 6.75466 5.00002L11 9.24534C11.025 9.27034 11.0562 9.28127 11.089 9.28127C11.1203 9.28127 11.1531 9.26877 11.1781 9.24534L12.7703 7.65315C13.8468 6.57502 13.9734 4.90784 13.15 3.69221L14.339 2.50315C14.3875 2.45315 14.3875 2.37346 14.339 2.32502ZM12.0172 6.90159L11.089 7.82971L8.17029 4.91096L9.09841 3.98284C9.48747 3.59377 10.0062 3.37815 10.5578 3.37815C11.1093 3.37815 11.6265 3.59221 12.0172 3.98284C12.4062 4.3719 12.6218 4.89065 12.6218 5.44221C12.6218 5.99377 12.4062 6.51096 12.0172 6.90159ZM9.04529 8.54221C9.02179 8.51895 8.99007 8.5059 8.957 8.5059C8.92394 8.5059 8.89222 8.51895 8.86872 8.54221L7.8281 9.58284L6.41716 8.1719L7.45935 7.12971C7.50778 7.08127 7.50778 7.00159 7.45935 6.95315L6.8906 6.3844C6.8671 6.36114 6.83538 6.34809 6.80232 6.34809C6.76925 6.34809 6.73753 6.36114 6.71404 6.3844L5.67185 7.42659L4.99997 6.75471C4.98831 6.74304 4.97441 6.73384 4.9591 6.72766C4.9438 6.72149 4.92741 6.71847 4.91091 6.71877C4.87966 6.71877 4.84685 6.73127 4.82185 6.75471L3.23122 8.3469C2.15466 9.42502 2.0281 11.0922 2.85153 12.3078L1.66247 13.4969C1.63921 13.5204 1.62616 13.5521 1.62616 13.5852C1.62616 13.6182 1.63921 13.65 1.66247 13.6735L2.32497 14.336C2.34997 14.361 2.38122 14.3719 2.41403 14.3719C2.44685 14.3719 2.4781 14.3594 2.5031 14.336L3.69216 13.1469C4.21872 13.5047 4.83122 13.6828 5.44372 13.6828C6.24372 13.6828 7.04372 13.3781 7.65466 12.7672L9.24685 11.175C9.29528 11.1266 9.29528 11.0469 9.24685 10.9985L8.57497 10.3266L9.61716 9.2844C9.6656 9.23596 9.6656 9.15627 9.61716 9.10784L9.04529 8.54221ZM6.90154 12.0172C6.7103 12.2094 6.48286 12.3618 6.23237 12.4656C5.98188 12.5694 5.7133 12.6225 5.44216 12.6219C4.8906 12.6219 4.37341 12.4078 3.98278 12.0172C3.79057 11.826 3.63816 11.5985 3.53437 11.348C3.43058 11.0976 3.37747 10.829 3.3781 10.5578C3.3781 10.0063 3.59216 9.48909 3.98278 9.09846L4.91091 8.17034L7.82966 11.0891L6.90154 12.0172Z" fill="#454256"/>
</svg>
