<svg width="16" height="16" viewBox="0 0 16 16" fill="none" xmlns="http://www.w3.org/2000/svg">
<path d="M13.75 2.875H11.125V1.875C11.125 1.80625 11.0688 1.75 11 1.75H10.125C10.0562 1.75 10 1.80625 10 1.875V2.875H6V1.875C6 1.80625 5.94375 1.75 5.875 1.75H5C4.93125 1.75 4.875 1.80625 4.875 1.875V2.875H2.25C1.97344 2.875 1.75 3.09844 1.75 3.375V13.75C1.75 14.0266 1.97344 14.25 2.25 14.25H13.75C14.0266 14.25 14.25 14.0266 14.25 13.75V3.375C14.25 3.09844 14.0266 2.875 13.75 2.875ZM13.125 13.125H2.875V4H4.875V4.75C4.875 4.81875 4.93125 4.875 5 4.875H5.875C5.94375 4.875 6 4.81875 6 4.75V4H10V4.75C10 4.81875 10.0562 4.875 10.125 4.875H11C11.0688 4.875 11.125 4.81875 11.125 4.75V4H13.125V13.125ZM10.75 6.5625H9.8875C9.80781 6.5625 9.73125 6.60156 9.68437 6.66563L7.32656 9.9125L6.31563 8.52188C6.26875 8.45781 6.19375 8.41875 6.1125 8.41875H5.25C5.14844 8.41875 5.08906 8.53438 5.14844 8.61719L7.12344 11.3359C7.14679 11.3679 7.17736 11.3939 7.21265 11.4118C7.24795 11.4298 7.28698 11.4391 7.32656 11.4391C7.36615 11.4391 7.40518 11.4298 7.44047 11.4118C7.47577 11.3939 7.50633 11.3679 7.52969 11.3359L10.8516 6.7625C10.9109 6.67812 10.8516 6.5625 10.75 6.5625Z" fill="#454256"/>
</svg>
