<svg width="16" height="16" viewBox="0 0 16 16" fill="none" xmlns="http://www.w3.org/2000/svg">
<path d="M5.53125 10.4844H6.45157C6.525 10.4844 6.59532 10.4516 6.64375 10.3953L8 8.77812L9.35625 10.3953C9.40313 10.4516 9.47344 10.4844 9.54844 10.4844H10.4688C10.575 10.4844 10.6328 10.3609 10.5641 10.2797L8.65313 8L10.5656 5.72031C10.6344 5.63906 10.5766 5.51562 10.4703 5.51562H9.55C9.47657 5.51562 9.40625 5.54844 9.35782 5.60469L8 7.22188L6.64375 5.60469C6.59688 5.54844 6.52657 5.51562 6.45157 5.51562H5.53125C5.425 5.51562 5.36719 5.63906 5.43594 5.72031L7.34688 8L5.43594 10.2797C5.42054 10.2978 5.41066 10.3199 5.40747 10.3435C5.40429 10.3671 5.40793 10.391 5.41796 10.4126C5.428 10.4341 5.44401 10.4524 5.46409 10.4651C5.48417 10.4778 5.50748 10.4845 5.53125 10.4844Z" fill="#454256"/>
<path d="M13.75 1.75H2.25C1.97344 1.75 1.75 1.97344 1.75 2.25V13.75C1.75 14.0266 1.97344 14.25 2.25 14.25H13.75C14.0266 14.25 14.25 14.0266 14.25 13.75V2.25C14.25 1.97344 14.0266 1.75 13.75 1.75ZM13.125 13.125H2.875V2.875H13.125V13.125Z" fill="#454256"/>
</svg>
